<?xml version="1.0" encoding="UTF-8" standalone="no"?>
<!-- Created with Inkscape (http://www.inkscape.org/) -->

<svg
   xmlns:dc="http://purl.org/dc/elements/1.1/"
   xmlns:cc="http://creativecommons.org/ns#"
   xmlns:rdf="http://www.w3.org/1999/02/22-rdf-syntax-ns#"
   xmlns:svg="http://www.w3.org/2000/svg"
   xmlns="http://www.w3.org/2000/svg"
   xmlns:sodipodi="http://sodipodi.sourceforge.net/DTD/sodipodi-0.dtd"
   xmlns:inkscape="http://www.inkscape.org/namespaces/inkscape"
   width="128"
   height="128"
   viewBox="0 0 128 128"
   version="1.1"
   id="svg8"
   inkscape:version="0.92.4 (5da689c313, 2019-01-14)"
   sodipodi:docname="temp-logo.svg"
   inkscape:export-filename="C:\Users\Peter\Desktop\i-logos\ai.png"
   inkscape:export-xdpi="96"
   inkscape:export-ydpi="96">
  <defs
     id="defs2">
    <inkscape:perspective
       sodipodi:type="inkscape:persp3d"
       inkscape:vp_x="0 : 64 : 1"
       inkscape:vp_y="0 : 1000 : 0"
       inkscape:vp_z="128 : 64 : 1"
       inkscape:persp3d-origin="64 : 42.666667 : 1"
       id="perspective3900" />
  </defs>
  <sodipodi:namedview
     id="base"
     pagecolor="#ffffff"
     bordercolor="#000000"
     borderopacity="1"
     inkscape:pageopacity="0.0"
     inkscape:pageshadow="2"
     inkscape:zoom="2.7614381"
     inkscape:cx="116.35202"
     inkscape:cy="51.52596"
     inkscape:document-units="px"
     inkscape:current-layer="layer6"
     showgrid="false"
     inkscape:showpageshadow="false"
     inkscape:pagecheckerboard="true"
     units="px"
     inkscape:window-width="1920"
     inkscape:window-height="1017"
     inkscape:window-x="-8"
     inkscape:window-y="-8"
     inkscape:window-maximized="1" />
  <metadata
     id="metadata5">
    <rdf:RDF>
      <cc:Work
         rdf:about="">
        <dc:format>image/svg+xml</dc:format>
        <dc:type
           rdf:resource="http://purl.org/dc/dcmitype/StillImage" />
        <dc:title></dc:title>
      </cc:Work>
    </rdf:RDF>
  </metadata>
  <g
     inkscape:label="temp"
     inkscape:groupmode="layer"
     id="layer1"
     transform="translate(0,-263.13333)"
     style="display:none">
    <path
       style="fill:#ffffff;stroke-width:1.00781012"
       d="M 16.865234,8 C 11.954305,8 8,11.954305 8,16.865234 V 111.13477 C 8,116.0457 11.954305,120 16.865234,120 H 111.13477 C 116.0457,120 120,116.0457 120,111.13477 V 16.865234 C 120,11.954305 116.0457,8 111.13477,8 Z m 7.16211,8.509766 h 79.945316 c 4.16463,0 7.51757,3.352939 7.51757,7.517578 v 79.945316 c 0,4.16463 -3.35294,7.51757 -7.51757,7.51757 H 24.027344 c -4.164639,0 -7.517578,-3.35294 -7.517578,-7.51757 V 24.027344 c 0,-4.164639 3.352939,-7.517578 7.517578,-7.517578 z"
       transform="translate(0,263.13333)"
       id="rect10"
       inkscape:connector-curvature="0" />
    <g
       id="g163"
       transform="matrix(0.16115944,0,0,0.16115944,22.743184,285.87652)"
       style="fill:#ffffff">
      <g
         id="g88"
         style="fill:#ffffff">
	<g
   id="g86"
   style="fill:#ffffff">
		<path
   id="path84"
   d="M 341.333,288.593 V 85.333 C 341.333,38.205 303.128,0 256,0 208.872,0 170.667,38.205 170.667,85.333 V 288.592 C 144.48,312.03 128,346.091 128,384 c 0,70.693 57.308,128 128,128 70.692,0 128,-57.307 128,-128 0,-37.909 -16.48,-71.97 -42.667,-95.407 z M 256,469.333 c -47.128,0 -85.333,-38.205 -85.333,-85.333 0,-24.637 10.441,-47.492 28.455,-63.615 l 14.212,-12.72 V 85.333 c 0,-23.564 19.103,-42.667 42.667,-42.667 23.564,0 42.667,19.102 42.667,42.667 v 222.332 l 14.212,12.72 c 18.014,16.123 28.455,38.977 28.455,63.615 -0.002,47.128 -38.207,85.333 -85.335,85.333 z"
   inkscape:connector-curvature="0"
   style="fill:#ffffff" />

	</g>

</g>
      <g
         id="g94"
         style="fill:#ffffff">
	<g
   id="g92"
   style="fill:#ffffff">
		<rect
   id="rect90"
   height="256"
   width="42.667"
   y="170.66701"
   x="234.66701"
   style="fill:#ffffff" />

	</g>

</g>
      <g
         id="g100"
         style="fill:#ffffff">
	<g
   id="g98"
   style="fill:#ffffff">
		<circle
   id="circle96"
   r="64"
   cy="384"
   cx="256"
   style="fill:#ffffff" />

	</g>

</g>
      <g
         id="g102"
         style="fill:#ffffff">
</g>
      <g
         id="g104"
         style="fill:#ffffff">
</g>
      <g
         id="g106"
         style="fill:#ffffff">
</g>
      <g
         id="g108"
         style="fill:#ffffff">
</g>
      <g
         id="g110"
         style="fill:#ffffff">
</g>
      <g
         id="g112"
         style="fill:#ffffff">
</g>
      <g
         id="g114"
         style="fill:#ffffff">
</g>
      <g
         id="g116"
         style="fill:#ffffff">
</g>
      <g
         id="g118"
         style="fill:#ffffff">
</g>
      <g
         id="g120"
         style="fill:#ffffff">
</g>
      <g
         id="g122"
         style="fill:#ffffff">
</g>
      <g
         id="g124"
         style="fill:#ffffff">
</g>
      <g
         id="g126"
         style="fill:#ffffff">
</g>
      <g
         id="g128"
         style="fill:#ffffff">
</g>
      <g
         id="g130"
         style="fill:#ffffff">
</g>
    </g>
  </g>
  <g
     inkscape:groupmode="layer"
     id="layer2"
     inkscape:label="elec"
     style="display:none">
    <path
       style="color:#000000;font-style:normal;font-variant:normal;font-weight:normal;font-stretch:normal;font-size:medium;line-height:normal;font-family:sans-serif;font-variant-ligatures:normal;font-variant-position:normal;font-variant-caps:normal;font-variant-numeric:normal;font-variant-alternates:normal;font-feature-settings:normal;text-indent:0;text-align:start;text-decoration:none;text-decoration-line:none;text-decoration-style:solid;text-decoration-color:#000000;letter-spacing:normal;word-spacing:normal;text-transform:none;writing-mode:lr-tb;direction:ltr;text-orientation:mixed;dominant-baseline:auto;baseline-shift:baseline;text-anchor:start;white-space:normal;shape-padding:0;clip-rule:nonzero;display:inline;overflow:visible;visibility:visible;opacity:1;isolation:auto;mix-blend-mode:normal;color-interpolation:sRGB;color-interpolation-filters:linearRGB;solid-color:#000000;solid-opacity:1;vector-effect:none;fill:#ffffff;fill-opacity:1;fill-rule:nonzero;stroke:none;stroke-width:21.84402084;stroke-linecap:butt;stroke-linejoin:round;stroke-miterlimit:4;stroke-dasharray:none;stroke-dashoffset:0;stroke-opacity:1;color-rendering:auto;image-rendering:auto;shape-rendering:auto;text-rendering:auto;enable-background:accumulate"
       d="m 64.513672,10.732422 a 10.923103,10.923103 0 0 0 -9.972656,5.447266 L 30.541016,57.75 6.5410156,99.320312 A 10.923103,10.923103 0 0 0 15.998047,115.70312 H 64 112.00195 a 10.923103,10.923103 0 0 0 9.45703,-16.382808 L 97.458984,57.75 l -24,-41.570312 a 10.923103,10.923103 0 0 0 -8.945312,-5.447266 z m -0.84961,15.091797 c 2.378818,-0.126418 4.627218,1.093258 5.81836,3.15625 l 19.451172,33.691406 19.451176,33.691406 c 2.43639,4.219679 -0.60793,9.495089 -5.48047,9.496099 H 64 25.095703 c -4.872541,-0.001 -7.916855,-5.27642 -5.480469,-9.496099 L 39.066406,62.671875 58.517578,28.980469 c 1.071053,-1.855003 3.007495,-3.04259 5.146484,-3.15625 z"
       id="path3916"
       inkscape:connector-curvature="0" />
    <g
       id="g4838"
       transform="matrix(0.10757375,0,0,0.10757375,34.461107,46.461174)"
       style="fill:#ffffff">
      <g
         id="g4781"
         style="fill:#ffffff">
	<g
   id="g4779"
   style="fill:#ffffff">
		<path
   id="path4777"
   d="m 400.268,175.599 c -1.399,-3.004 -4.412,-4.932 -7.731,-4.932 H 291.417 L 391.214,13.099 c 1.664,-2.628 1.766,-5.956 0.265,-8.678 C 389.977,1.69 387.109,0 384.003,0 H 247.47 c -3.234,0 -6.187,1.826 -7.637,4.719 l -128,256 c -1.323,2.637 -1.178,5.777 0.375,8.294 1.562,2.517 4.301,4.053 7.262,4.053 h 87.748 l -95.616,227.089 c -1.63,3.883 -0.179,8.388 3.413,10.59 1.382,0.845 2.918,1.254 4.446,1.254 2.449,0 4.864,-1.05 6.537,-3.029 L 399.065,184.703 c 2.141,-2.542 2.602,-6.092 1.203,-9.104 z"
   inkscape:connector-curvature="0"
   style="fill:#ffffff" />

	</g>

</g>
      <g
         id="g4783"
         style="fill:#ffffff">
</g>
      <g
         id="g4785"
         style="fill:#ffffff">
</g>
      <g
         id="g4787"
         style="fill:#ffffff">
</g>
      <g
         id="g4789"
         style="fill:#ffffff">
</g>
      <g
         id="g4791"
         style="fill:#ffffff">
</g>
      <g
         id="g4793"
         style="fill:#ffffff">
</g>
      <g
         id="g4795"
         style="fill:#ffffff">
</g>
      <g
         id="g4797"
         style="fill:#ffffff">
</g>
      <g
         id="g4799"
         style="fill:#ffffff">
</g>
      <g
         id="g4801"
         style="fill:#ffffff">
</g>
      <g
         id="g4803"
         style="fill:#ffffff">
</g>
      <g
         id="g4805"
         style="fill:#ffffff">
</g>
      <g
         id="g4807"
         style="fill:#ffffff">
</g>
      <g
         id="g4809"
         style="fill:#ffffff">
</g>
      <g
         id="g4811"
         style="fill:#ffffff">
</g>
    </g>
  </g>
  <g
     inkscape:groupmode="layer"
     id="layer3"
     inkscape:label="shield"
     style="display:none">
    <path
       style="color:#000000;font-style:normal;font-variant:normal;font-weight:normal;font-stretch:normal;font-size:medium;line-height:normal;font-family:sans-serif;font-variant-ligatures:normal;font-variant-position:normal;font-variant-caps:normal;font-variant-numeric:normal;font-variant-alternates:normal;font-feature-settings:normal;text-indent:0;text-align:start;text-decoration:none;text-decoration-line:none;text-decoration-style:solid;text-decoration-color:#000000;letter-spacing:normal;word-spacing:normal;text-transform:none;writing-mode:lr-tb;direction:ltr;text-orientation:mixed;dominant-baseline:auto;baseline-shift:baseline;text-anchor:start;white-space:normal;shape-padding:0;clip-rule:nonzero;display:inline;overflow:visible;visibility:visible;opacity:1;isolation:auto;mix-blend-mode:normal;color-interpolation:sRGB;color-interpolation-filters:linearRGB;solid-color:#000000;solid-opacity:1;vector-effect:none;fill:#ffffff;fill-opacity:1;fill-rule:nonzero;stroke:none;stroke-width:12.65999985;stroke-linecap:butt;stroke-linejoin:round;stroke-miterlimit:4;stroke-dasharray:none;stroke-dashoffset:0;stroke-opacity:1;color-rendering:auto;image-rendering:auto;shape-rendering:auto;text-rendering:auto;enable-background:accumulate"
       d="m 64.275391,9.2675781 c -1.463131,-0.063344 -2.902968,0.38255 -4.074219,1.2617189 L 35.113281,29.351562 9.4589844,47.394531 c -2.3018761,1.619228 -3.2584189,4.563661 -2.3476563,7.226563 l 10.1484379,29.675781 9.234375,29.974605 c 0.828938,2.68884 3.333095,4.50788 6.146484,4.46485 L 64,118.25586 l 31.359375,0.48047 c 2.813389,0.043 5.317545,-1.77601 6.146485,-4.46485 l 9.23437,-29.974605 10.14844,-29.675781 c 0.91076,-2.6629 -0.0458,-5.607333 -2.34765,-7.226563 L 92.886719,29.351562 67.798828,10.529297 C 66.778347,9.7632384 65.550187,9.3234429 64.275391,9.2675781 Z m -0.05078,11.6992189 c 1.03957,0.04556 2.040865,0.404592 2.873047,1.029297 l 20.458985,15.349609 20.919917,14.712891 c 1.87706,1.320448 2.65678,3.721037 1.91406,5.892578 l -8.27539,24.201172 -7.52929,24.443356 c -0.675985,2.19269 -2.71941,3.67563 -5.013672,3.64063 L 64,109.84375 38.427734,110.23633 c -2.294262,0.0351 -4.33769,-1.44794 -5.013672,-3.64063 L 25.884766,82.152344 17.609375,57.951172 c -0.742709,-2.171543 0.03693,-4.572131 1.914063,-5.892578 L 40.443359,37.345703 60.902344,21.996094 c 0.955132,-0.716945 2.129112,-1.080957 3.322265,-1.029297 z"
       id="path4844"
       inkscape:connector-curvature="0" />
    <g
       id="g4950"
       transform="matrix(0.13690531,0,0,0.13690531,33.980568,43.980568)"
       style="fill:#ffffff">
      <g
         id="g4894"
         style="fill:#ffffff">
	<path
   id="path4892"
   d="M 396.58,5.424 C 392.959,1.807 388.675,0 383.727,0 H 54.824 c -4.952,0 -9.235,1.807 -12.852,5.424 -3.615,3.615 -5.424,7.898 -5.424,12.847 v 219.268 c 0,16.371 3.186,32.596 9.563,48.681 6.374,16.084 14.274,30.361 23.697,42.828 9.423,12.47 20.651,24.605 33.689,36.405 13.04,11.806 25.078,21.6 36.116,29.409 11.038,7.803 22.554,15.181 34.545,22.121 11.991,6.943 20.511,11.663 25.553,14.134 5.043,2.478 9.088,4.38 12.132,5.708 2.286,1.143 4.758,1.718 7.426,1.718 2.671,0 5.14,-0.575 7.428,-1.718 3.042,-1.328 7.087,-3.23 12.128,-5.708 5.041,-2.471 13.565,-7.19 25.557,-14.134 11.984,-6.94 23.504,-14.318 34.54,-22.121 11.043,-7.81 23.079,-17.604 36.121,-29.409 13.031,-11.8 24.263,-23.936 33.685,-36.405 9.421,-12.467 17.319,-26.744 23.705,-42.828 6.379,-16.085 9.562,-32.31 9.562,-48.681 V 18.271 C 401.994,13.319 400.187,9.04 396.58,5.424 Z m -49.402,232.115 c 0,33.5 -22.367,67.759 -67.095,102.781 -17.892,14.082 -38.164,27.124 -60.813,39.115 V 54.813 h 127.908 z"
   inkscape:connector-curvature="0"
   style="fill:#ffffff" />

</g>
      <g
         id="g4896"
         style="fill:#ffffff">
</g>
      <g
         id="g4898"
         style="fill:#ffffff">
</g>
      <g
         id="g4900"
         style="fill:#ffffff">
</g>
      <g
         id="g4902"
         style="fill:#ffffff">
</g>
      <g
         id="g4904"
         style="fill:#ffffff">
</g>
      <g
         id="g4906"
         style="fill:#ffffff">
</g>
      <g
         id="g4908"
         style="fill:#ffffff">
</g>
      <g
         id="g4910"
         style="fill:#ffffff">
</g>
      <g
         id="g4912"
         style="fill:#ffffff">
</g>
      <g
         id="g4914"
         style="fill:#ffffff">
</g>
      <g
         id="g4916"
         style="fill:#ffffff">
</g>
      <g
         id="g4918"
         style="fill:#ffffff">
</g>
      <g
         id="g4920"
         style="fill:#ffffff">
</g>
      <g
         id="g4922"
         style="fill:#ffffff">
</g>
      <g
         id="g4924"
         style="fill:#ffffff">
</g>
    </g>
  </g>
  <g
     inkscape:groupmode="layer"
     id="layer4"
     inkscape:label="plant"
     style="display:none">
    <path
       style="color:#000000;font-style:normal;font-variant:normal;font-weight:normal;font-stretch:normal;font-size:medium;line-height:normal;font-family:sans-serif;font-variant-ligatures:normal;font-variant-position:normal;font-variant-caps:normal;font-variant-numeric:normal;font-variant-alternates:normal;font-feature-settings:normal;text-indent:0;text-align:start;text-decoration:none;text-decoration-line:none;text-decoration-style:solid;text-decoration-color:#000000;letter-spacing:normal;word-spacing:normal;text-transform:none;writing-mode:lr-tb;direction:ltr;text-orientation:mixed;dominant-baseline:auto;baseline-shift:baseline;text-anchor:start;white-space:normal;shape-padding:0;clip-rule:nonzero;display:inline;overflow:visible;visibility:visible;opacity:1;isolation:auto;mix-blend-mode:normal;color-interpolation:sRGB;color-interpolation-filters:linearRGB;solid-color:#000000;solid-opacity:1;vector-effect:none;fill:#ffffff;fill-opacity:1;fill-rule:nonzero;stroke:none;stroke-width:11.33498287;stroke-linecap:butt;stroke-linejoin:round;stroke-miterlimit:4;stroke-dasharray:none;stroke-dashoffset:0;stroke-opacity:1;color-rendering:auto;image-rendering:auto;shape-rendering:auto;text-rendering:auto;enable-background:accumulate"
       d="m 43.25,8.2382812 c -1.503227,3.48e-5 -2.944875,0.5972087 -4.007812,1.6601563 L 9.8984375,39.244141 C 8.8354899,40.307078 8.238316,41.748726 8.2382812,43.251953 V 84.75 c 3.48e-5,1.503227 0.5972087,2.944876 1.6601563,4.007812 L 39.244141,118.10156 c 1.062936,1.06295 2.504584,1.66012 4.007812,1.66016 H 84.75 c 1.503228,-4e-5 2.944877,-0.59721 4.007812,-1.66016 L 118.10156,88.755859 c 1.06295,-1.062936 1.66012,-2.504584 1.66016,-4.007812 V 43.25 c -4e-5,-1.503228 -0.59721,-2.944876 -1.66016,-4.007812 L 88.755859,9.8984375 C 87.692922,8.8354899 86.251274,8.238316 84.748047,8.2382812 Z m 3.435547,9.2343748 H 81.3125 c 1.254288,2.9e-5 2.456838,0.497845 3.34375,1.384766 l 24.48633,24.484375 c 0.88692,0.886911 1.38473,2.089461 1.38476,3.34375 V 81.3125 c -3e-5,1.254289 -0.49784,2.456839 -1.38476,3.34375 l -24.484377,24.48633 c -0.88691,0.88692 -2.089462,1.38473 -3.34375,1.38476 H 46.6875 c -1.254289,-3e-5 -2.456839,-0.49784 -3.34375,-1.38476 L 18.857422,84.658203 C 17.970501,83.771292 17.472685,82.56874 17.472656,81.314453 V 46.6875 c 2.9e-5,-1.254288 0.497845,-2.456838 1.384766,-3.34375 L 43.341797,18.857422 c 0.886911,-0.886921 2.089462,-1.384737 3.34375,-1.384766 z"
       id="path4959"
       inkscape:connector-curvature="0" />
    <g
       id="g5070"
       transform="matrix(-0.01615315,-0.7108789,0.7108789,-0.01615315,31.745155,97.758214)"
       style="fill:#ffffff">
      <g
         id="g5013"
         style="fill:#ffffff">
	<g
   id="g5011"
   style="fill:#ffffff">
		<path
   id="path5009"
   d="M 23.602,17.519 C 4.491,28.608 5.588,46.67 6.246,53.353 30.93,24.113 67.852,25.531 67.852,25.531 c 0,0 -52.338,17.953 -67.71,53.954 -1.214,2.842 5.696,6.538 7.273,3.178 4.707,-10.012 11.266,-17.521 11.266,-17.521 9.677,3.601 26.417,7.821 38.282,-0.528 C 72.723,53.523 71.112,28.937 93.61,16.966 98.865,14.171 49.511,2.484 23.602,17.519 Z"
   style="fill:#ffffff"
   inkscape:connector-curvature="0" />

	</g>

</g>
      <g
         id="g5015"
         style="fill:#ffffff">
</g>
      <g
         id="g5017"
         style="fill:#ffffff">
</g>
      <g
         id="g5019"
         style="fill:#ffffff">
</g>
      <g
         id="g5021"
         style="fill:#ffffff">
</g>
      <g
         id="g5023"
         style="fill:#ffffff">
</g>
      <g
         id="g5025"
         style="fill:#ffffff">
</g>
      <g
         id="g5027"
         style="fill:#ffffff">
</g>
      <g
         id="g5029"
         style="fill:#ffffff">
</g>
      <g
         id="g5031"
         style="fill:#ffffff">
</g>
      <g
         id="g5033"
         style="fill:#ffffff">
</g>
      <g
         id="g5035"
         style="fill:#ffffff">
</g>
      <g
         id="g5037"
         style="fill:#ffffff">
</g>
      <g
         id="g5039"
         style="fill:#ffffff">
</g>
      <g
         id="g5041"
         style="fill:#ffffff">
</g>
      <g
         id="g5043"
         style="fill:#ffffff">
</g>
    </g>
  </g>
  <g
     inkscape:groupmode="layer"
     id="layer5"
     inkscape:label="portal"
     style="display:none">
    <path
       style="color:#000000;font-style:normal;font-variant:normal;font-weight:normal;font-stretch:normal;font-size:medium;line-height:normal;font-family:sans-serif;font-variant-ligatures:normal;font-variant-position:normal;font-variant-caps:normal;font-variant-numeric:normal;font-variant-alternates:normal;font-feature-settings:normal;text-indent:0;text-align:start;text-decoration:none;text-decoration-line:none;text-decoration-style:solid;text-decoration-color:#000000;letter-spacing:normal;word-spacing:normal;text-transform:none;writing-mode:lr-tb;direction:ltr;text-orientation:mixed;dominant-baseline:auto;baseline-shift:baseline;text-anchor:start;white-space:normal;shape-padding:0;clip-rule:nonzero;display:inline;overflow:visible;visibility:visible;opacity:1;isolation:auto;mix-blend-mode:normal;color-interpolation:sRGB;color-interpolation-filters:linearRGB;solid-color:#000000;solid-opacity:1;vector-effect:none;fill:#ffffff;fill-opacity:1;fill-rule:nonzero;stroke:none;stroke-width:12.73460007;stroke-linecap:butt;stroke-linejoin:round;stroke-miterlimit:4;stroke-dasharray:none;stroke-dashoffset:0;stroke-opacity:1;color-rendering:auto;image-rendering:auto;shape-rendering:auto;text-rendering:auto;enable-background:accumulate"
       d="M 64,7 C 32.595188,7 7,32.595187 7,64 7,95.404813 32.595188,121 64,121 95.404812,121 121,95.404813 121,64 121,32.595187 95.404812,7 64,7 Z m 0,8.873047 c 26.516577,0 48.12695,21.610375 48.12695,48.126953 0,26.516578 -21.610373,48.12695 -48.12695,48.12695 C 37.483423,112.12695 15.873047,90.516578 15.873047,64 15.873047,37.483422 37.483423,15.873047 64,15.873047 Z"
       id="path5073"
       inkscape:connector-curvature="0" />
    <path
       id="path5092"
       d="M 82.776427,37.384526 C 77.829797,29.965163 71.161387,25.878842 63.99971,25.878842 c -7.161097,0 -13.828924,4.086321 -18.775553,11.505684 -4.761073,7.141319 -7.382717,16.593081 -7.382717,26.615472 0,10.021812 2.621644,19.474155 7.382717,26.614891 4.946629,7.419941 11.614456,11.506261 18.775553,11.506261 7.161677,0 13.830087,-4.08632 18.776717,-11.506261 4.760489,-7.140736 7.382135,-16.593079 7.382135,-26.614891 0,-10.022391 -2.621646,-19.474153 -7.382135,-26.615472 z m 2.913647,26.762639 -0.482211,-3.397609 -0.63927,-2.95204 c -0.0034,-0.01745 -0.0076,-0.0349 -0.01048,-0.05235 -0.04245,-0.226275 -0.131463,-0.509554 -0.225114,-0.809121 -0.0698,-0.223366 -0.14193,-0.453712 -0.21115,-0.706163 L 83.62218,54.519733 c -0.217549,-0.566559 -0.441497,-1.149987 -0.671844,-1.749119 -0.0029,-0.007 -0.0052,-0.01396 -0.0081,-0.02094 L 82.604818,51.844577 C 82.553046,51.723588 82.48441,51.583984 82.412281,51.4374 82.34946,51.309429 82.286638,51.181459 82.226143,51.051161 l -0.841094,-1.785766 c -1.251782,-2.25751 -2.700172,-4.302707 -4.19277,-5.920366 -1.412906,-1.407673 -3.02184,-2.607102 -4.662768,-3.474391 l -1.193031,-0.45953 c -0.113428,-0.04304 -0.225112,-0.09016 -0.336212,-0.13844 -0.03083,-0.01338 -0.06166,-0.02734 -0.09249,-0.04014 -0.165779,-0.03606 -0.329814,-0.07096 -0.492685,-0.105284 -0.0099,-0.0023 -0.01978,-0.0041 -0.02967,-0.0064 -0.362971,-0.08202 -0.714889,-0.168107 -1.049938,-0.255942 l -0.858563,-0.057 c -0.22802,-0.0087 -0.42521,-0.03374 -0.571794,-0.05293 -0.0349,-0.0047 -0.06864,-0.0099 -0.102959,-0.01338 -0.0058,5.59e-4 -0.01163,0.0011 -0.01687,0.0018 l -0.904517,0.08144 c -0.02734,0.0023 -0.0541,0.0041 -0.08143,0.0058 -0.194284,0.01047 -0.380421,0.02036 -0.556672,0.03025 l -0.452548,0.115174 c -0.007,0.0023 -0.01396,0.0035 -0.02094,0.0052 -0.495594,0.122155 -0.866709,0.201845 -1.100545,0.248962 -0.226856,0.0983 -0.592152,0.251869 -1.064479,0.434516 -0.0093,0.0035 -0.01803,0.007 -0.02734,0.01047 l -0.419972,0.157054 -0.521769,0.316436 c -0.02211,0.0128 -0.04421,0.02617 -0.06631,0.03839 l -0.21057,0.118081 c -0.184974,0.10354 -0.378094,0.212314 -0.578774,0.323997 -0.0087,0.0047 -0.01687,0.0093 -0.02618,0.01396 -0.03432,0.02792 -0.08492,0.07038 -0.125062,0.104121 -0.121571,0.102376 -0.272227,0.229184 -0.450222,0.35599 l -0.709071,0.530494 c -0.276299,0.285025 -0.549689,0.557253 -0.814937,0.810866 -0.0058,0.0052 -0.01163,0.01047 -0.01745,0.01629 l -0.378091,0.35308 c -0.02443,0.03083 -0.06282,0.08027 -0.09249,0.119245 -0.06864,0.089 -0.13786,0.177413 -0.207662,0.261757 -0.269901,0.336213 -0.552599,0.673589 -0.842277,1.004566 -1.011546,1.462932 -1.913153,3.106768 -2.614081,4.766308 -0.623564,1.668848 -1.120322,3.499985 -1.477474,5.44455 -0.04886,0.521769 -0.09947,0.981299 -0.154728,1.400691 -0.0128,0.114593 -0.02967,0.226276 -0.04595,0.336795 -0.0099,0.06689 -0.02036,0.135532 -0.02559,0.181485 l -0.01629,0.610767 c 0,0.0081 -5.58e-4,0.01571 -0.0011,0.02385 -0.01454,0.406015 -0.03723,0.807376 -0.06631,1.19594 l 0.0047,0.114592 c 0.01454,0.324579 0.0285,0.632289 0.03373,0.939998 0.0099,0.208243 0.0076,0.390891 0.0052,0.540384 -0.0011,0.08667 -0.0029,0.204752 0.0011,0.243725 0.0029,0.02036 0.0047,0.03141 0.007,0.05119 0.04246,0.338539 0.07969,0.679405 0.109937,1.012128 0.02152,0.240816 0.04014,0.481633 0.05584,0.71896 l 0.103539,0.540383 c 0.0018,0.0087 0.0035,0.01803 0.0052,0.02734 0.102377,0.564815 0.160545,0.969084 0.190792,1.197104 0.06398,0.222784 0.171596,0.615419 0.296658,1.142424 0.0029,0.01106 0.0052,0.02211 0.0076,0.03316 l 0.10005,0.449059 c 0.07678,0.200681 0.147747,0.393799 0.215805,0.586918 0.103539,0.294332 0.194281,0.57412 0.278625,0.855655 0.01396,0.02909 0.02967,0.05875 0.04479,0.08841 0.05817,0.112847 0.13495,0.263503 0.209406,0.441498 0.105866,0.233836 0.201261,0.463601 0.291422,0.688131 0.155892,0.251869 0.29724,0.496175 0.429864,0.742227 0.0081,0.01454 0.01571,0.02908 0.02327,0.04421 l 0.139022,0.270483 c 0.04537,0.05875 0.105866,0.135532 0.171015,0.228021 0.174504,0.237326 0.344356,0.488031 0.506064,0.74688 0.620073,0.712561 1.266905,1.312858 1.882325,1.747956 0.474653,0.250123 0.980135,0.430445 1.507139,0.537475 0.174505,-0.01454 0.339702,-0.01919 0.498502,-0.01803 0.0023,-5.58e-4 0.0052,-0.0011 0.0076,-0.0018 0.132623,-0.03374 0.261757,-0.06108 0.388563,-0.0826 0.07329,-0.03316 0.149494,-0.06573 0.229766,-0.09714 0.466509,-0.209987 0.791088,-0.465927 0.987697,-0.620655 1.02027,-0.803886 1.918971,-0.65323 2.493673,-0.385656 0.764331,0.356572 1.26516,1.117994 1.291335,1.960853 0.02617,0.841113 -0.416484,1.587993 -1.091818,1.989936 -0.328651,0.257104 -0.995259,0.757932 -1.937585,1.169182 -0.03723,0.01629 -0.07504,0.03141 -0.113427,0.04595 -0.03607,0.01513 -0.125644,0.05991 -0.190793,0.09307 l -0.03781,0.01861 c -0.278626,0.139023 -0.583428,0.218131 -0.894629,0.232673 -0.0011,0 -0.0029,5.59e-4 -0.0041,0.0011 l -0.221039,0.06515 c -0.08667,0.02501 -0.173923,0.04479 -0.262921,0.05933 -0.314691,0.05177 -0.573538,0.03315 -0.712562,0.01861 -0.0157,0 -0.07387,0.0018 -0.198935,0.01861 -0.101794,0.01454 -0.203589,0.02152 -0.305965,0.02152 -0.114009,0 -0.227438,-0.0087 -0.340284,-0.02617 -1.178489,-0.181485 -2.303463,-0.564814 -3.343513,-1.138934 -0.06224,-0.03432 -0.122734,-0.07155 -0.181485,-0.111683 -1.015616,-0.694529 -2.012039,-1.612424 -2.961928,-2.729837 -0.07794,-0.09191 -0.14891,-0.190793 -0.211732,-0.294332 -0.126807,-0.210569 -0.255358,-0.403105 -0.392636,-0.588662 -0.01512,-0.02094 -0.03025,-0.04188 -0.04479,-0.0634 -0.0058,-0.007 -0.01978,-0.02501 -0.03374,-0.04246 -0.07795,-0.09947 -0.196027,-0.250123 -0.312946,-0.443824 -0.02676,-0.04479 -0.05177,-0.09016 -0.07562,-0.136696 l -0.196608,-0.384515 c -0.111684,-0.204753 -0.233837,-0.412413 -0.374022,-0.632871 -0.07271,-0.115173 -0.134951,-0.236744 -0.186139,-0.36297 -0.103538,-0.258267 -0.201843,-0.502574 -0.300729,-0.718377 -0.01571,-0.0349 -0.03141,-0.07038 -0.04537,-0.105867 -0.01629,-0.03781 -0.03956,-0.07911 -0.06049,-0.12099 -0.102376,-0.200099 -0.254777,-0.497921 -0.357734,-0.874851 -0.06108,-0.202426 -0.12739,-0.406014 -0.203008,-0.621237 -0.06864,-0.195445 -0.142512,-0.393218 -0.225111,-0.604369 -0.04188,-0.107029 -0.07562,-0.216386 -0.100632,-0.328649 l -0.133205,-0.602042 c -0.154146,-0.646832 -0.275136,-1.041794 -0.276299,-1.045866 -0.0011,-0.0047 -0.0023,-0.0093 -0.0035,-0.01454 -0.01919,-0.06457 -0.03606,-0.130298 -0.05002,-0.197773 -0.0058,-0.03025 -0.0093,-0.06108 -0.01454,-0.09191 -0.0058,-0.03664 -0.01338,-0.07271 -0.01687,-0.109938 -5.58e-4,-0.0035 -0.04479,-0.389727 -0.170433,-1.090072 l -0.12913,-0.672385 c -0.01861,-0.09539 -0.03083,-0.191955 -0.03606,-0.289678 -0.01396,-0.237908 -0.03258,-0.481632 -0.05468,-0.724194 -0.02501,-0.273973 -0.05526,-0.555507 -0.09016,-0.835878 -0.05352,-0.372859 -0.04886,-0.700346 -0.04537,-0.941744 0.0011,-0.108776 0.0029,-0.201844 -0.0011,-0.272228 -0.0018,-0.03025 -0.0029,-0.0605 -0.0035,-0.09074 -0.0041,-0.257103 -0.01687,-0.546781 -0.03083,-0.852747 l -0.01106,-0.256521 c -0.0035,-0.09191 -0.0023,-0.183811 0.0052,-0.2763 0.02967,-0.362969 0.05177,-0.74339 0.06631,-1.129627 l 0.0011,-0.0605 c 0.0052,-0.200681 0.01047,-0.403688 0.01687,-0.609603 5.58e-4,-0.02967 0.0018,-0.05933 0.0041,-0.08842 0.01512,-0.223366 0.0442,-0.415903 0.06748,-0.57063 0.0093,-0.06224 0.01919,-0.125063 0.02675,-0.19021 0.0018,-0.01513 0.0035,-0.03083 0.0058,-0.04595 0.05177,-0.392054 0.09947,-0.831225 0.146583,-1.343687 0.0058,-0.06515 0.01455,-0.129716 0.02617,-0.1937 0.408923,-2.258674 0.988861,-4.396358 1.723526,-6.35372 0.0099,-0.02734 0.02094,-0.0541 0.03199,-0.08085 0.839369,-1.996917 1.931187,-3.979292 3.156793,-5.733646 0.04828,-0.06922 0.100631,-0.135532 0.156473,-0.199518 0.278043,-0.314108 0.548527,-0.635779 0.803884,-0.955122 0.01163,-0.01454 0.02327,-0.0285 0.0349,-0.04304 0.03781,-0.04479 0.07445,-0.09249 0.111101,-0.140186 0.107029,-0.139022 0.240235,-0.3112 0.408341,-0.488032 0.03083,-0.03316 0.0634,-0.06515 0.09598,-0.09598 l 0.440916,-0.411831 c 0.257103,-0.24547 0.524677,-0.514207 0.796906,-0.798069 0.08492,-0.089 0.177413,-0.170433 0.276298,-0.244306 l 0.877178,-0.656139 c 0.01978,-0.01513 0.03956,-0.02909 0.05933,-0.04304 0.03025,-0.02152 0.109356,-0.08783 0.166942,-0.136696 0.218132,-0.183229 0.510718,-0.42928 0.898119,-0.627053 0.180321,-0.100631 0.354826,-0.198354 0.52235,-0.292586 l 0.296659,-0.1716 0.547945,-0.332141 c 0.12099,-0.07387 0.248378,-0.135532 0.381002,-0.184975 l 0.606085,-0.226273 c 0.660792,-0.25594 1.058663,-0.437425 1.062735,-0.439169 0.01919,-0.0087 0.03839,-0.01513 0.05759,-0.02269 0.03374,-0.01454 0.06806,-0.0285 0.102958,-0.0413 0.03723,-0.01338 0.07504,-0.02617 0.112265,-0.03781 0.03258,-0.0099 0.06457,-0.01919 0.09714,-0.02792 0.04188,-0.01047 0.08376,-0.02036 0.125643,-0.0285 0.01745,-0.0035 0.03374,-0.0087 0.05119,-0.01163 0.0128,-0.0023 0.398453,-0.07155 1.07844,-0.238491 l 0.658466,-0.168688 c 0.140185,-0.03548 0.282697,-0.05759 0.426373,-0.06515 0.230346,-0.0128 0.478724,-0.02676 0.74339,-0.04072 l 0.813775,-0.07271 c 0.473489,-0.06049 0.872523,-0.0093 1.141842,0.02559 0.06049,0.0081 0.143094,0.01861 0.171596,0.01977 0.02908,5.58e-4 0.05643,0.0023 0.08493,0.0041 l 1.11625,0.07387 c 0.147747,0.0099 0.294331,0.03432 0.437426,0.07329 0.333303,0.09016 0.692783,0.179159 1.068551,0.264667 0.204752,0.04304 0.41183,0.08783 0.621235,0.132622 0.05235,0.01106 0.103541,0.02443 0.154729,0.03898 0.263503,0.07678 0.48396,0.172178 0.644505,0.24198 0.0477,0.02036 0.09481,0.04188 0.143674,0.05991 0.0052,0.0023 0.01047,0.0041 0.01513,0.0058 l 1.319838,0.507808 c 0.07795,0.03025 0.154146,0.06457 0.22802,0.102959 1.041211,0.540965 2.049849,1.171509 3.019515,1.885234 0.536892,0.66719 1.056335,1.376262 1.556583,2.127212 4.278276,6.414194 6.633506,14.986452 6.633506,24.13632 0,0.04944 -0.0011,0.0983 -0.0011,0.147166 z M 64.332431,30.352564 63.087049,30.755089 c -0.0087,0.0035 -0.01803,0.0058 -0.02676,0.0087 l -0.657302,0.20417 -0.792833,0.3938 c -0.0081,0.0041 -0.01629,0.0081 -0.02501,0.01163 l -1.063897,0.510718 c -0.02559,0.01221 -0.05177,0.02443 -0.07736,0.03548 -0.06224,0.03432 -0.207079,0.136114 -0.313527,0.21115 -0.151819,0.106449 -0.322252,0.226856 -0.51537,0.346683 l -1.062153,0.697438 -1.113923,0.963266 c -0.0081,0.007 -0.01687,0.01455 -0.02559,0.02153 -0.189047,0.158799 -0.38042,0.319344 -0.573539,0.481633 -0.05875,0.05875 -0.139022,0.147166 -0.216968,0.233254 -0.08842,0.09772 -0.176832,0.196028 -0.26641,0.289678 l -1.172091,1.241312 c -1.501323,1.877089 -2.868859,4.061889 -3.959514,6.327543 -1.002821,2.262746 -1.85964,4.864031 -2.479713,7.528719 l -0.327487,1.916062 c -0.02211,0.133206 -0.04828,0.26932 -0.07446,0.404852 -0.02967,0.15531 -0.05584,0.290841 -0.07271,0.409505 l -0.08551,0.90219 c -0.05991,0.592736 -0.122153,1.166855 -0.187885,1.719453 l -0.04595,1.550185 c -0.0035,0.249541 -0.01629,0.478143 -0.0285,0.680569 -0.01396,0.24896 -0.02617,0.4636 -0.01513,0.622981 0.0011,0.02152 0.0023,0.04304 0.0035,0.06457 l 0.05351,1.35823 c 5.58e-4,0.01047 0.0011,0.02152 0.0011,0.03199 l 0.02617,1.07146 c 0.03723,0.326323 0.07155,0.627053 0.102376,0.901607 0.101213,0.926039 0.155891,1.539132 0.177995,1.795655 0.0506,0.257104 0.167525,0.863217 0.317017,1.733414 l 0.13844,0.833551 0.254777,0.94698 c 0.0035,0.0128 0.007,0.02559 0.0099,0.03839 l 0.29375,1.177326 c 0.0064,0.02675 0.0128,0.05352 0.01861,0.08027 0.01861,0.08958 0.08376,0.263502 0.146584,0.431608 0.06457,0.172179 0.137277,0.367624 0.205916,0.585755 l 0.392054,1.179652 c 0.203589,0.443242 0.3874,0.856819 0.558997,1.260506 0.0029,0.0058 0.0052,0.01222 0.0076,0.01861 l 0.255941,0.616001 c 0.02617,0.05061 0.06689,0.121572 0.107029,0.190793 0.05817,0.101794 0.116337,0.203588 0.172178,0.30771 0.225693,0.407759 0.451967,0.834133 0.672425,1.268649 0.956286,1.490853 2.023674,2.814181 3.092807,3.834453 0.977809,0.819009 2.038216,1.473401 3.155047,1.948636 0.327487,0.07213 0.620655,0.146584 0.890556,0.226276 0.08202,0.0221 0.154728,0.04479 0.215804,0.06457 l 0.208243,0.0128 c 0.01629,5.58e-4 0.03315,0.0023 0.05002,0.0035 0.243144,0.01978 0.483378,0.04712 0.717797,0.0826 0.175668,-0.01745 0.35657,-0.03374 0.543873,-0.04304 0.166361,-0.01454 0.311201,-0.01454 0.42172,-0.0128 0.20766,-0.05526 0.411831,-0.102959 0.609603,-0.143676 0.119827,-0.02443 0.240235,-0.04712 0.35948,-0.06689 l 0.182648,-0.07911 c 0.01745,-0.0076 0.03432,-0.01455 0.05119,-0.02152 0.300148,-0.121572 0.543873,-0.208244 0.73292,-0.270483 0.173923,-0.107612 0.408341,-0.246052 0.695111,-0.399616 0.01861,-0.0099 0.03723,-0.01919 0.05642,-0.0285 l 0.158801,-0.07911 c 0.105283,-0.08958 0.210568,-0.175669 0.314689,-0.257687 0.173342,-0.137276 0.349591,-0.268155 0.524096,-0.389727 0.08144,-0.09307 0.186721,-0.212896 0.320507,-0.339703 0.14833,-0.151818 0.294914,-0.289096 0.42812,-0.411249 0.15938,-0.219876 0.319343,-0.427537 0.47756,-0.620074 0.01396,-0.01687 0.0285,-0.03432 0.04304,-0.05118 0.05235,-0.05991 0.105283,-0.120408 0.158217,-0.181485 5.58e-4,-5.58e-4 0.0011,-0.0018 0.0018,-0.0029 0.0477,-0.08434 0.09598,-0.167525 0.14542,-0.246052 0.159381,-0.263503 0.328069,-0.520606 0.503156,-0.766077 0.529913,-1.034812 0.980717,-2.135938 1.30704,-3.197509 0.249543,-1.033649 0.419975,-2.152808 0.50781,-3.330134 -0.01803,-0.333885 -0.02501,-0.617747 -0.02094,-0.881249 -5.58e-4,-0.08318 0.0023,-0.16287 0.0058,-0.24198 l -0.03315,-0.257103 c -0.0023,-0.01454 -0.0041,-0.02909 -0.0058,-0.04421 -0.02734,-0.240817 -0.04537,-0.467091 -0.05526,-0.684641 -0.04014,-0.18323 -0.07853,-0.368786 -0.109937,-0.554925 -0.186721,-0.951633 -0.410087,-1.590321 -0.530495,-1.934677 -0.133787,-0.381584 -0.446151,-1.275048 0.155891,-2.206322 0.374022,-0.579356 0.998167,-0.954541 1.685135,-1.014454 1.129628,-0.09714 2.135357,0.662536 2.373847,1.740394 5.58e-4,0.0011 0.0011,0.0029 0.0011,0.0041 0.148329,0.422883 0.456621,1.30297 0.705582,2.590233 0.0047,0.02211 0.0087,0.04421 0.01221,0.06631 0.02211,0.139022 0.06573,0.333885 0.112264,0.540383 0.03316,0.148329 0.05119,0.301312 0.0541,0.453131 0.0018,0.140767 0.01338,0.303056 0.03257,0.482215 l 0.0506,0.385656 c 0.0058,0.04246 0.0099,0.08492 0.0128,0.127388 0.01571,0.214059 0.007,0.392636 0.0018,0.499083 l -0.0018,0.04246 c 0,0.01803 0,0.03607 -5.58e-4,0.05468 -0.0029,0.189047 0.0041,0.422302 0.02211,0.713143 0.0052,0.09598 0.0052,0.192538 -0.0011,0.288514 -0.102957,1.504814 -0.322251,2.946805 -0.65032,4.285258 -0.0093,0.03955 -0.02036,0.07853 -0.03199,0.117499 -0.428119,1.408835 -1.004565,2.810691 -1.713055,4.166011 -0.05352,0.102376 -0.114011,0.199518 -0.182067,0.292005 -0.138441,0.187302 -0.266993,0.380421 -0.393218,0.590408 -0.0128,0.02094 -0.02501,0.0413 -0.03839,0.06108 -0.0081,0.01454 -0.02152,0.03781 -0.03432,0.06108 -0.06922,0.122153 -0.164035,0.289678 -0.298984,0.470581 -0.03258,0.04363 -0.06631,0.08609 -0.102377,0.127388 -0.08609,0.10005 -0.171597,0.198355 -0.256522,0.295496 -0.129133,0.158798 -0.264085,0.337957 -0.400198,0.532821 -0.09714,0.139603 -0.209988,0.266991 -0.336212,0.38042 -0.177995,0.159962 -0.312946,0.282698 -0.429863,0.404851 -0.02792,0.0285 -0.05643,0.05643 -0.08551,0.08376 -0.01571,0.01803 -0.03199,0.03664 -0.0477,0.05468 -0.15531,0.178577 -0.406597,0.467673 -0.785272,0.706745 -0.105285,0.07155 -0.214642,0.1524 -0.325161,0.240235 -0.118081,0.09307 -0.23849,0.194282 -0.360643,0.301894 -0.145421,0.128551 -0.306547,0.237326 -0.479888,0.323997 l -0.382747,0.191373 c -0.346101,0.186139 -0.556671,0.329233 -0.558997,0.330978 -0.244888,0.171014 -0.511881,0.285605 -0.786435,0.347265 -0.08202,0.02559 -0.236745,0.07736 -0.457785,0.166942 l -0.426955,0.184975 c -0.194282,0.08434 -0.399034,0.140762 -0.609021,0.167522 -0.115755,0.0151 -0.237909,0.0355 -0.363552,0.06166 -0.137858,0.02792 -0.282116,0.06282 -0.431027,0.104124 -0.488032,0.151817 -0.896373,0.13844 -1.121484,0.13088 l -0.02269,-5.59e-4 c -0.0349,0.0028 -0.07038,0.0051 -0.105283,0.0064 -0.127389,0.0046 -0.301894,0.02268 -0.486869,0.04131 l -0.159963,0.01573 c -0.07271,0.0076 -0.14542,0.01105 -0.218712,0.01105 -0.136114,0 -0.271647,-0.01282 -0.406015,-0.0372 -0.182649,-0.0343 -0.378094,-0.05991 -0.580519,-0.07678 L 58.674979,84.879 c -0.07155,-0.004 -0.143094,-0.01162 -0.213478,-0.02268 -0.28037,-0.04301 -0.503155,-0.118664 -0.63636,-0.164037 l -0.03898,-0.01282 c -0.02327,-0.0064 -0.04595,-0.01282 -0.06922,-0.01977 -0.211734,-0.0634 -0.462439,-0.125056 -0.766659,-0.187878 -0.132623,-0.02792 -0.262339,-0.06689 -0.387983,-0.118082 -1.636272,-0.665444 -3.176567,-1.6037 -4.577841,-2.788005 -0.03199,-0.02676 -0.0634,-0.05468 -0.09365,-0.08376 -1.389059,-1.314603 -2.69959,-2.93517 -3.896111,-4.816333 -0.03956,-0.06282 -0.07678,-0.127389 -0.109937,-0.194282 -0.212896,-0.423464 -0.43161,-0.837041 -0.650322,-1.230258 -0.0081,-0.01454 -0.01571,-0.02967 -0.02385,-0.04421 -0.03316,-0.06282 -0.06864,-0.123899 -0.104121,-0.185556 -0.08551,-0.14833 -0.191955,-0.333305 -0.293749,-0.549691 -0.01454,-0.03141 -0.0285,-0.0634 -0.04188,-0.0954 l -0.277463,-0.668966 c -0.166943,-0.392635 -0.347846,-0.798068 -0.551435,-1.238403 -0.03548,-0.07678 -0.06689,-0.155309 -0.09307,-0.235 l -0.437426,-1.315766 c -0.0047,-0.01454 -0.0093,-0.02908 -0.01396,-0.04421 -0.03316,-0.105867 -0.08085,-0.233254 -0.130879,-0.368785 -0.105285,-0.281537 -0.235581,-0.629383 -0.323416,-1.028417 l -0.280371,-1.123229 -0.277463,-1.030161 c -0.01919,-0.07155 -0.03432,-0.143674 -0.04653,-0.216966 L 44.184681,66.16856 c -0.18323,-1.064479 -0.315272,-1.714217 -0.317018,-1.720617 -0.0023,-0.01106 -0.0029,-0.02211 -0.0047,-0.03315 -0.007,-0.0349 -0.01163,-0.07038 -0.01629,-0.105866 -0.0058,-0.03898 -0.01106,-0.07794 -0.01454,-0.116919 -0.0011,-0.007 -0.0023,-0.01396 -0.0029,-0.02152 -5.58e-4,-0.0058 -0.05061,-0.646249 -0.175086,-1.782275 -0.03258,-0.292005 -0.07038,-0.624146 -0.112265,-0.986534 -0.0076,-0.06631 -0.01221,-0.133206 -0.01396,-0.200681 l -0.02792,-1.150568 -0.05235,-1.31344 c -0.02676,-0.42521 -0.0047,-0.80912 0.01512,-1.148823 0.0099,-0.175668 0.01978,-0.341448 0.02094,-0.495594 0,-0.01396 5.58e-4,-0.02792 0.0011,-0.04188 l 0.04944,-1.67001 c 0.0018,-0.06631 0.007,-0.132624 0.01454,-0.198936 0.06689,-0.554343 0.130296,-1.133119 0.189047,-1.721781 l 0.08958,-0.935927 c 0.0023,-0.02385 0.0052,-0.0477 0.0081,-0.07155 0.03374,-0.263503 0.07969,-0.502574 0.120407,-0.713725 0.01977,-0.101795 0.03956,-0.204752 0.057,-0.309455 l 0.213478,-1.24771 c 1.116249,-3.807113 2.702497,-7.301863 4.714538,-10.319632 4.091556,-6.136171 9.439547,-9.515747 15.058601,-9.515747 0.111101,0 0.222203,0.0035 0.332722,0.0064 z m -22.022505,33.49736 c 0.04654,0.321089 0.157636,1.09531 0.321089,2.233081 0.0506,0.361224 0.103539,0.749207 0.161707,1.1686 l 0.294914,1.338451 c 0.0011,0.0052 0.0023,0.01047 0.0035,0.01571 l 0.340284,1.5973 c 0.0035,0.01687 0.007,0.03374 0.0099,0.05061 0.04362,0.228019 0.132623,0.513625 0.226856,0.815519 0.06922,0.221622 0.140767,0.450222 0.209406,0.700927 l 0.499665,1.709565 c 0.218131,0.56656 0.442661,1.151151 0.673007,1.751448 0.0023,0.007 0.0047,0.01338 0.0076,0.02036 l 0.337376,0.904517 c 0.05235,0.121571 0.121571,0.262338 0.194282,0.410667 0.0634,0.128552 0.126807,0.257686 0.187301,0.388565 l 0.838205,1.779367 c 1.251782,2.256928 2.699589,4.302124 4.191605,5.920365 1.41349,1.407675 3.023005,2.607101 4.663932,3.474389 l 1.190704,0.458949 c 0.115174,0.04364 0.228603,0.09191 0.340866,0.140188 0.03025,0.01339 0.05991,0.02678 0.09016,0.03954 l 0.492104,0.1047 c 0.0093,0.0023 0.01919,0.004 0.0285,0.0064 0.349591,0.07853 0.701509,0.164619 1.049937,0.255941 l 0.859726,0.05759 c 0.22802,0.0087 0.425211,0.03373 0.571796,0.05236 0.03432,0.0046 0.06864,0.0099 0.102375,0.01339 0.0058,0 0.01163,-5.58e-4 0.01745,-0.0011 l 0.909171,-0.08144 c 0.02385,-0.0017 0.04828,-0.0034 0.07213,-0.0051 l 0.560742,-0.03082 0.458947,-0.117502 c 0.0052,-0.0011 0.0099,-0.0023 0.01513,-0.0034 0.495012,-0.12157 0.865544,-0.201265 1.099962,-0.248376 0.226855,-0.09831 0.592153,-0.251873 1.063898,-0.4351 0.0087,-0.0028 0.01745,-0.0064 0.02617,-0.0099 l 0.422884,-0.15764 c 0.164034,-0.09946 0.336794,-0.20475 0.51886,-0.314686 0.02269,-0.01396 0.04595,-0.02792 0.0698,-0.04074 l 0.787017,-0.440336 c 0.0087,-0.0051 0.01745,-0.0099 0.02675,-0.0151 0.03432,-0.02735 0.08609,-0.07097 0.126225,-0.1047 0.121572,-0.102381 0.271646,-0.228605 0.449641,-0.355411 l 0.709653,-0.530496 c 0.272809,-0.281533 0.545037,-0.552596 0.811447,-0.808537 0.007,-0.0064 0.01396,-0.01282 0.02094,-0.0192 l 0.378094,-0.353081 c 0.02443,-0.03082 0.06224,-0.08028 0.09249,-0.119245 0.06864,-0.089 0.137858,-0.177415 0.20766,-0.261177 0.271063,-0.338538 0.553762,-0.675915 0.841695,-1.004565 1.010383,-1.46177 1.912573,-3.106186 2.614082,-4.765726 0.624146,-1.670012 1.120321,-3.501148 1.476893,-5.445132 0.05002,-0.531077 0.101212,-0.991187 0.155308,-1.401855 0.01338,-0.114011 0.02967,-0.225112 0.04596,-0.335631 0.0099,-0.06689 0.02036,-0.134951 0.02559,-0.180903 l 0.01629,-0.611349 c 0,-0.0076 5.59e-4,-0.01513 5.59e-4,-0.02269 0.01513,-0.406597 0.03723,-0.808539 0.06689,-1.197103 l -0.0035,-0.08958 c -0.01512,-0.333305 -0.02909,-0.649158 -0.03548,-0.964431 -0.0099,-0.20766 -0.007,-0.389726 -0.0047,-0.538637 0.0011,-0.08667 0.0029,-0.205917 -0.0011,-0.244889 -0.0035,-0.02094 -0.0047,-0.03199 -0.0076,-0.05293 -0.04304,-0.341447 -0.07969,-0.682314 -0.109939,-1.01271 -0.02152,-0.239072 -0.04072,-0.480469 -0.05584,-0.718959 l -0.10298,-0.536376 c -0.0018,-0.0099 -0.0035,-0.02036 -0.0058,-0.03025 -0.101794,-0.564813 -0.159963,-0.968501 -0.19021,-1.197103 -0.06399,-0.222784 -0.171597,-0.614838 -0.296658,-1.140679 -0.0029,-0.01106 -0.0052,-0.02211 -0.0076,-0.03258 L 73.363583,62.83043 c -0.07387,-0.192536 -0.146584,-0.389727 -0.215804,-0.586917 -0.104121,-0.296077 -0.195445,-0.575865 -0.278045,-0.854492 -0.01454,-0.02967 -0.03025,-0.05875 -0.04537,-0.08842 -0.05817,-0.113429 -0.134951,-0.264084 -0.209406,-0.443242 -0.106448,-0.234418 -0.203007,-0.468837 -0.291422,-0.686967 -0.152401,-0.246634 -0.296077,-0.495013 -0.429864,-0.741646 -0.0081,-0.01571 -0.01629,-0.03141 -0.02443,-0.04712 l -0.13844,-0.269902 c -0.05759,-0.07387 -0.114591,-0.147747 -0.168688,-0.224529 -0.174505,-0.237327 -0.344937,-0.488032 -0.507228,-0.748043 -0.619491,-0.712562 -1.266322,-1.31344 -1.882906,-1.74912 -0.474071,-0.250125 -0.978973,-0.430446 -1.506559,-0.537475 -0.173923,0.01454 -0.339702,0.02094 -0.499083,0.01803 -0.0018,5.58e-4 -0.0035,0.0011 -0.0052,0.0018 -0.133205,0.03374 -0.263503,0.06108 -0.391473,0.0826 -0.07329,0.03374 -0.150074,0.06631 -0.229764,0.09772 -0.465929,0.209988 -0.791088,0.465347 -0.987116,0.620075 -1.019689,0.803304 -1.917807,0.653811 -2.491928,0.386819 -0.763749,-0.355408 -1.265742,-1.115667 -1.293081,-1.957362 -0.02792,-0.842859 0.415321,-1.592066 1.091818,-1.994591 0.329233,-0.257685 0.995259,-0.757932 1.937003,-1.169182 0.03839,-0.01629 0.07736,-0.03258 0.117501,-0.04712 0.03897,-0.01629 0.135532,-0.06515 0.206498,-0.100632 l 0.01629,-0.0081 c 0.279208,-0.139604 0.58401,-0.219295 0.89521,-0.233837 0.0018,0 0.0035,-5.58e-4 0.0052,-5.58e-4 l 0.222203,-0.06573 c 0.08551,-0.02501 0.173341,-0.04479 0.261757,-0.05933 0.31469,-0.05177 0.572957,-0.03316 0.712561,-0.01919 0.01338,0.0035 0.07038,-5.59e-4 0.196609,-0.01803 0.215804,-0.03025 0.434517,-0.0285 0.650321,0.0047 1.17849,0.182067 2.302883,0.564814 3.342349,1.138935 0.06224,0.03432 0.123317,0.07155 0.182067,0.111684 1.0162,0.695111 2.012622,1.614168 2.960764,2.730418 0.07795,0.09074 0.147748,0.188465 0.209407,0.290259 0.128552,0.212896 0.258267,0.407179 0.396707,0.59448 0.01338,0.01803 0.02617,0.03607 0.03897,0.05468 0.0064,0.0081 0.02036,0.02559 0.03432,0.04304 0.07969,0.101795 0.200679,0.255359 0.319925,0.454876 0.02501,0.04246 0.04886,0.08551 0.07155,0.129715 l 0.197772,0.386238 c 0.112847,0.20766 0.237909,0.419393 0.371114,0.628799 0.07387,0.116335 0.137276,0.239652 0.188465,0.367623 0.09888,0.24547 0.20068,0.499665 0.301311,0.717797 0.01571,0.03548 0.03141,0.07155 0.04596,0.107611 0.01629,0.03723 0.03897,0.07853 0.06049,0.120407 0.102377,0.2001 0.254195,0.49734 0.357154,0.874852 0.05991,0.199518 0.126806,0.403106 0.203006,0.620073 0.07097,0.203008 0.146584,0.405433 0.223366,0.600297 0.04304,0.109356 0.07736,0.22104 0.102377,0.335049 l 0.132623,0.599134 c 0.154728,0.64683 0.275136,1.042957 0.2763,1.047029 0.0099,0.03141 0.01629,0.06398 0.02443,0.09598 0.0093,0.03606 0.01977,0.07155 0.02734,0.108775 0.0087,0.04304 0.01454,0.08551 0.02094,0.128552 0.0041,0.02734 0.0099,0.05468 0.0128,0.0826 0.0035,0.02676 0.0477,0.408923 0.169853,1.084839 0.03083,0.158217 0.0634,0.32865 0.09772,0.510717 l 0.03141,0.164034 c 0.01861,0.09714 0.03083,0.195446 0.03665,0.29375 0.01338,0.235582 0.03141,0.477561 0.05352,0.71896 0.02501,0.273391 0.05526,0.554343 0.09074,0.83646 0.0541,0.374021 0.04886,0.702672 0.04537,0.945234 -0.0011,0.108193 -0.0029,0.201844 0.0011,0.272228 0.0018,0.0285 0.0029,0.057 0.0035,0.08551 0.0041,0.265829 0.01803,0.564231 0.03199,0.879504 l 0.0099,0.230928 c 0.0041,0.09307 0.0029,0.186721 -0.0047,0.279208 -0.02967,0.362969 -0.05235,0.742809 -0.06631,1.129046 l -0.01803,0.665445 c -5.59e-4,0.03083 -0.0023,0.06166 -0.0041,0.09249 -0.01512,0.223366 -0.04421,0.415903 -0.06747,0.570631 -0.0099,0.06224 -0.01978,0.125644 -0.02676,0.19021 -0.0018,0.01571 -0.0035,0.03199 -0.0058,0.0477 -0.05061,0.381003 -0.09889,0.820754 -0.147166,1.343105 -0.0058,0.06457 -0.01454,0.128552 -0.02617,0.192537 -0.408342,2.258092 -0.988279,4.395776 -1.722945,6.353719 -0.01047,0.02734 -0.02094,0.0541 -0.03257,0.08085 -0.83995,1.997498 -1.931187,3.980456 -3.15621,5.733064 -0.04828,0.06922 -0.101213,0.136116 -0.157055,0.199515 -0.275135,0.311781 -0.5462,0.633453 -0.803886,0.955706 -0.01163,0.01453 -0.02327,0.02849 -0.0349,0.04244 -0.03781,0.04478 -0.07387,0.09249 -0.110519,0.140188 -0.107611,0.139021 -0.240816,0.311781 -0.409505,0.489191 -0.03083,0.03202 -0.06224,0.06341 -0.09481,0.09423 l -0.440915,0.41125 c -0.260013,0.250125 -0.528168,0.518281 -0.796324,0.799234 -0.08551,0.089 -0.177413,0.171017 -0.276299,0.244307 l -0.880669,0.657883 c -0.01803,0.01339 -0.03606,0.02678 -0.05468,0.03954 -0.03025,0.02154 -0.109356,0.08841 -0.167525,0.137278 -0.218131,0.183226 -0.510717,0.429864 -0.897536,0.627635 l -0.703255,0.393213 c -0.238489,0.145425 -0.462437,0.280953 -0.670679,0.407183 -0.118664,0.07155 -0.243726,0.132042 -0.37344,0.180902 l -0.608441,0.226856 c -0.660792,0.256523 -1.059245,0.438006 -1.063315,0.44033 -0.01803,0.0081 -0.03606,0.01339 -0.0541,0.02091 -0.03897,0.01686 -0.07853,0.03259 -0.118081,0.04712 -0.03548,0.01282 -0.07097,0.02444 -0.106448,0.03549 -0.03665,0.01105 -0.07387,0.02091 -0.111101,0.03025 -0.03956,0.0099 -0.07911,0.0192 -0.118664,0.02735 -0.01338,0.0023 -0.02617,0.0064 -0.03955,0.0087 -0.01338,0.0023 -0.398452,0.07155 -1.077858,0.23849 l -0.657883,0.168106 c -0.139604,0.03549 -0.282116,0.05759 -0.426373,0.06573 l -0.742227,0.04074 -0.814938,0.07271 c -0.157636,0.02034 -0.30771,0.02792 -0.446733,0.02792 -0.278043,0 -0.514208,-0.03025 -0.693365,-0.0535 -0.06049,-0.0076 -0.143094,-0.01863 -0.171596,-0.01977 -0.03083,-5.59e-4 -0.05991,-0.0017 -0.09074,-0.004 l -1.110432,-0.07387 c -0.147166,-0.0099 -0.293168,-0.03373 -0.435099,-0.07213 -0.354827,-0.09598 -0.716051,-0.185557 -1.073787,-0.265832 L 56.02588,93.108897 c -0.05351,-0.01162 -0.107029,-0.02501 -0.159962,-0.04074 -0.260594,-0.07561 -0.478725,-0.17043 -0.637524,-0.239071 -0.04712,-0.02034 -0.09481,-0.04188 -0.143094,-0.05991 -0.0076,-0.0028 -0.01454,-0.0051 -0.02152,-0.0081 L 53.74336,92.252692 C 53.666,92.223012 53.590378,92.188702 53.516504,92.150311 52.475869,91.60872 51.467231,90.978755 50.497566,90.265032 49.961255,89.59784 49.441231,88.888773 48.940983,88.137818 44.663939,81.722277 42.308707,73.15002 42.308707,64.00015 c 0,-0.05002 0.0011,-0.100048 0.0011,-0.150074 z m 21.357061,33.797504 1.246546,-0.403103 c 0.0081,-0.0023 0.01571,-0.0046 0.02385,-0.0076 l 0.659628,-0.205332 0.79167,-0.392637 c 0.0093,-0.0046 0.01803,-0.0093 0.02734,-0.01339 0.333305,-0.159383 0.688713,-0.329819 1.063317,-0.510139 0.02559,-0.01219 0.05119,-0.02387 0.07736,-0.03493 0.06166,-0.0343 0.206496,-0.135528 0.312945,-0.210568 0.151819,-0.10703 0.322253,-0.226856 0.515952,-0.346683 l 1.061572,-0.69802 1.115086,-0.963847 c 0.0076,-0.0069 0.01571,-0.01339 0.02327,-0.01977 l 0.575284,-0.482798 c 0.05817,-0.05875 0.13844,-0.147743 0.216386,-0.233836 0.08842,-0.09772 0.177413,-0.195441 0.266993,-0.289675 l 1.171509,-1.240732 c 1.502485,-1.878833 2.870022,-4.064216 3.958932,-6.327545 1.003984,-2.263324 1.860803,-4.86461 2.479713,-7.529298 l 0.328069,-1.915481 c 0.02211,-0.133204 0.04886,-0.271646 0.07504,-0.409504 0.02967,-0.152984 0.05584,-0.287351 0.07213,-0.404851 l 0.08609,-0.903935 c 0.05759,-0.578775 0.120409,-1.154059 0.187303,-1.717709 l 0.04596,-1.550766 c 0.0035,-0.248379 0.01629,-0.47698 0.02792,-0.679406 0.01454,-0.249542 0.02675,-0.465346 0.0157,-0.624727 -0.0011,-0.02094 -0.0023,-0.0413 -0.0029,-0.06166 l -0.05468,-1.359973 c 0,-0.01106 -5.59e-4,-0.02269 -0.0011,-0.03374 l -0.02559,-1.070297 -0.102957,-0.899281 c -0.101212,-0.927784 -0.15589,-1.54204 -0.177413,-1.798563 -0.05119,-0.257103 -0.167525,-0.862635 -0.317018,-1.73225 l -0.13844,-0.832971 -0.254777,-0.946397 c -0.0041,-0.01338 -0.0076,-0.02676 -0.01047,-0.04014 l -0.293776,-1.17844 c -0.0064,-0.02617 -0.0128,-0.05235 -0.01803,-0.07853 -0.01861,-0.089 -0.08318,-0.262339 -0.146002,-0.429282 -0.06457,-0.173343 -0.137858,-0.369369 -0.206498,-0.588663 L 77.9508,57.302505 c -0.200681,-0.436262 -0.384493,-0.849838 -0.559579,-1.262251 -0.0023,-0.0052 -0.0047,-0.01047 -0.0064,-0.01571 l -0.257686,-0.61891 c -0.02559,-0.05002 -0.06689,-0.122153 -0.10703,-0.191955 -0.05817,-0.101213 -0.116336,-0.202426 -0.171015,-0.305966 -0.223947,-0.402524 -0.449641,-0.828316 -0.672425,-1.268067 -0.956868,-1.491435 -2.023674,-2.814182 -3.092807,-3.834453 -0.977809,-0.818428 -2.038215,-1.473403 -3.155046,-1.948637 -0.323998,-0.07096 -0.616584,-0.145421 -0.889394,-0.225693 -0.0826,-0.02211 -0.15589,-0.04537 -0.216386,-0.06515 l -0.213477,-0.0128 c -0.01571,-0.0011 -0.03199,-0.0023 -0.0477,-0.0035 -0.240817,-0.01978 -0.480471,-0.04712 -0.714307,-0.0826 -0.176832,0.01745 -0.358317,0.03374 -0.5462,0.04246 -0.16578,0.01513 -0.309456,0.01513 -0.419975,0.01338 -0.21057,0.05584 -0.415903,0.10412 -0.611931,0.144257 -0.120989,0.02443 -0.241397,0.04712 -0.35948,0.06631 l -0.191955,0.08318 c -0.01396,0.0058 -0.02734,0.01163 -0.0413,0.01745 -0.299566,0.121572 -0.542709,0.20766 -0.731174,0.269319 -0.173343,0.108193 -0.408342,0.246633 -0.695693,0.400197 -0.01803,0.0099 -0.03664,0.01919 -0.05526,0.0285 l -0.159963,0.07969 c -0.105285,0.089 -0.208824,0.173923 -0.312946,0.256523 -0.175086,0.13844 -0.351336,0.269319 -0.525259,0.390309 -0.08144,0.09365 -0.187301,0.214058 -0.322253,0.34203 -0.147166,0.149491 -0.293168,0.286769 -0.426373,0.408922 -0.159963,0.220458 -0.318181,0.42521 -0.478725,0.620656 -0.01338,0.01687 -0.02734,0.03316 -0.04188,0.04944 L 61.7678,50.863247 c -0.0011,0.0023 -0.0023,0.0041 -0.0029,0.0058 -0.04712,0.0826 -0.09481,0.164617 -0.143093,0.241399 -0.1588,0.263503 -0.327488,0.520606 -0.502574,0.766658 -0.530495,1.03365 -0.981299,2.134776 -1.308205,3.197509 -0.250123,1.035978 -0.420556,2.155135 -0.507227,3.330134 0.01745,0.333304 0.02443,0.617165 0.02036,0.880668 5.58e-4,0.09714 -0.0029,0.180902 -0.0058,0.243724 l 0.03374,0.26234 c 0.0018,0.01163 0.0035,0.02385 0.0047,0.03548 0.02675,0.236744 0.04537,0.466509 0.05526,0.686967 0.04072,0.186139 0.07969,0.370532 0.11052,0.555507 0.186138,0.951051 0.410086,1.589158 0.530494,1.933513 0.133788,0.382747 0.447896,1.27912 -0.15938,2.212139 -0.377512,0.58052 -1.00573,0.954542 -1.695605,1.009802 -0.06108,0.0052 -0.121572,0.0076 -0.181485,0.0076 -1.049937,0 -1.954454,-0.735248 -2.178402,-1.74912 -5.58e-4,-0.0011 -0.0011,-0.0029 -0.0018,-0.0041 -0.147747,-0.422883 -0.456039,-1.302969 -0.70558,-2.589651 -0.0041,-0.02269 -0.0081,-0.04596 -0.01222,-0.06922 -0.02152,-0.133206 -0.06399,-0.322835 -0.108774,-0.523515 -0.03316,-0.148911 -0.05468,-0.31469 -0.057,-0.46651 -0.0023,-0.143674 -0.01338,-0.305382 -0.03316,-0.481051 l -0.0506,-0.387401 c -0.0052,-0.04304 -0.0099,-0.08667 -0.0128,-0.129716 -0.01571,-0.212895 -0.0064,-0.390308 -0.0011,-0.496174 l 0.0018,-0.0413 c 0,-0.01919 0,-0.03839 0,-0.05759 0.0035,-0.188466 -0.0035,-0.421138 -0.02152,-0.71198 -0.0052,-0.09598 -0.0052,-0.191956 0.0011,-0.287933 0.102376,-1.503068 0.321089,-2.94506 0.64974,-4.285838 0.0099,-0.03898 0.02094,-0.07853 0.03258,-0.116918 0.4287,-1.411162 1.005148,-2.8136 1.714218,-4.167756 0.05235,-0.100631 0.112265,-0.19661 0.179741,-0.287934 0.137276,-0.186719 0.269901,-0.386819 0.394962,-0.594479 0.01106,-0.01861 0.02269,-0.03723 0.03432,-0.05526 0.01047,-0.01687 0.02385,-0.0413 0.03723,-0.06515 0.06922,-0.122153 0.164035,-0.289096 0.297241,-0.468836 0.03374,-0.04479 0.06864,-0.08841 0.105284,-0.130878 l 0.254195,-0.292586 c 0.129716,-0.159382 0.264666,-0.339122 0.402525,-0.535731 0.09656,-0.13844 0.208824,-0.265247 0.333885,-0.378094 0.15182,-0.136694 0.308293,-0.278044 0.435099,-0.408922 0.02618,-0.02734 0.05293,-0.05352 0.08027,-0.07911 0.01629,-0.01803 0.03257,-0.03723 0.04886,-0.05584 0.154728,-0.177994 0.405433,-0.466509 0.782364,-0.704999 0.107611,-0.07329 0.218713,-0.155891 0.330977,-0.244307 0.114592,-0.09074 0.232092,-0.189628 0.358317,-0.301311 0.14542,-0.128552 0.307128,-0.237326 0.481052,-0.323997 l 0.381002,-0.190211 c 0.346101,-0.18672 0.557251,-0.330395 0.559579,-0.331559 0.237907,-0.16636 0.497338,-0.277463 0.762586,-0.339703 0.07562,-0.02327 0.238489,-0.07678 0.482215,-0.175087 l 0.431026,-0.186137 c 0.193701,-0.08376 0.398453,-0.139604 0.607858,-0.166362 0.110521,-0.01396 0.232674,-0.03432 0.362388,-0.06108 0.132624,-0.02676 0.2763,-0.06166 0.42812,-0.103539 0.488031,-0.15182 0.896372,-0.138441 1.120902,-0.131462 l 0.02211,5.59e-4 c 0.03665,-0.0029 0.07271,-0.0052 0.109357,-0.0064 0.135532,-0.0052 0.320507,-0.02385 0.515952,-0.04421 l 0.123318,-0.01222 c 0.208823,-0.02094 0.419975,-0.0128 0.626471,0.02559 0.186721,0.03374 0.382748,0.05991 0.584592,0.07736 l 0.429864,0.02617 c 0.06457,0.0041 0.128551,0.01106 0.192535,0.02094 0.286771,0.04304 0.513046,0.119827 0.648578,0.166361 l 0.04014,0.0128 c 0.01977,0.0058 0.03956,0.01106 0.05933,0.01687 0.218132,0.06515 0.47,0.126807 0.770149,0.188465 0.133204,0.02792 0.263502,0.06748 0.389727,0.118663 1.635692,0.665445 3.175988,1.603118 4.577842,2.787423 0.03199,0.02734 0.0634,0.05526 0.09365,0.08434 1.388477,1.314022 2.699589,2.934589 3.89611,4.816333 0.03956,0.06282 0.0762,0.127389 0.109938,0.193701 0.215805,0.429281 0.434517,0.842857 0.64974,1.230258 0.0087,0.01513 0.01687,0.03025 0.02443,0.04537 0.03315,0.06224 0.06864,0.122736 0.103539,0.183231 0.08609,0.150074 0.1937,0.336794 0.296076,0.556089 0.01396,0.02967 0.02676,0.05991 0.03956,0.09016 l 0.278044,0.668935 c 0.170432,0.401361 0.350755,0.806212 0.550853,1.237821 0.03548,0.07678 0.06631,0.154727 0.09307,0.234999 l 0.438007,1.31693 c 0.0052,0.01512 0.0099,0.03025 0.01454,0.04537 0.03316,0.106448 0.08085,0.234419 0.131461,0.369369 0.104702,0.281534 0.234418,0.628799 0.322834,1.027252 l 0.279208,1.122065 0.278044,1.03016 c 0.01919,0.07213 0.0349,0.14484 0.04712,0.218132 l 0.154146,0.927784 c 0.182648,1.063897 0.314689,1.713055 0.315853,1.719453 0.0023,0.0093 0.0029,0.01861 0.0047,0.02792 0.0058,0.03258 0.0099,0.06573 0.01512,0.0983 0.0064,0.04362 0.0128,0.08667 0.01629,0.130297 5.59e-4,0.007 0.0023,0.01396 0.0029,0.02094 5.58e-4,0.0064 0.0506,0.64683 0.174505,1.783439 l 0.112846,0.986534 c 0.0076,0.06573 0.01221,0.132623 0.01396,0.198935 l 0.03897,1.443736 0.04131,1.022598 c 0.02615,0.424047 0.004,0.807376 -0.01516,1.146497 -0.0099,0.17625 -0.01977,0.342612 -0.02154,0.496758 0,0.01396 -5.58e-4,0.02792 -5.58e-4,0.0413 l -0.04944,1.669429 c -0.0023,0.06689 -0.007,0.134368 -0.01512,0.201262 -0.06806,0.565395 -0.132042,1.14417 -0.189047,1.718871 l -0.08958,0.938256 c -0.0023,0.02327 -0.0047,0.04712 -0.0081,0.07096 -0.03374,0.262339 -0.07911,0.500248 -0.119826,0.709653 -0.01978,0.102959 -0.03955,0.205916 -0.05759,0.311201 l -0.21406,1.251199 c -1.116249,3.806532 -2.702498,7.300699 -4.713956,10.317888 -4.089812,6.13791 -9.437803,9.517489 -15.05802,9.517489 -0.110521,0 -0.221622,-0.0034 -0.332723,-0.0064 z m 0,0"
       inkscape:connector-curvature="0"
       style="fill:#ffffff;stroke-width:0.14891078" />
  </g>
  <g
     inkscape:groupmode="layer"
     id="layer6"
     inkscape:label="ai"
     style="display:inline">
    <path
       style="color:#000000;font-style:normal;font-variant:normal;font-weight:normal;font-stretch:normal;font-size:medium;line-height:normal;font-family:sans-serif;font-variant-ligatures:normal;font-variant-position:normal;font-variant-caps:normal;font-variant-numeric:normal;font-variant-alternates:normal;font-feature-settings:normal;text-indent:0;text-align:start;text-decoration:none;text-decoration-line:none;text-decoration-style:solid;text-decoration-color:#000000;letter-spacing:normal;word-spacing:normal;text-transform:none;writing-mode:lr-tb;direction:ltr;text-orientation:mixed;dominant-baseline:auto;baseline-shift:baseline;text-anchor:start;white-space:normal;shape-padding:0;clip-rule:nonzero;display:inline;overflow:visible;visibility:visible;opacity:1;isolation:auto;mix-blend-mode:normal;color-interpolation:sRGB;color-interpolation-filters:linearRGB;solid-color:#000000;solid-opacity:1;vector-effect:none;fill:#ffffff;fill-opacity:1;fill-rule:nonzero;stroke:none;stroke-width:12.65999985;stroke-linecap:butt;stroke-linejoin:round;stroke-miterlimit:4;stroke-dasharray:none;stroke-dashoffset:0;stroke-opacity:1;color-rendering:auto;image-rendering:auto;shape-rendering:auto;text-rendering:auto;enable-background:accumulate"
       d="M 37.054688 10.998047 C 34.792851 10.998215 32.702935 12.20511 31.572266 14.164062 L 4.6269531 60.835938 C 3.4970599 62.794004 3.4970599 65.205996 4.6269531 67.164062 L 31.572266 113.83594 C 32.702936 115.79489 34.792851 117.00178 37.054688 117.00195 L 90.945312 117.00195 C 93.207149 117.00178 95.297064 115.79489 96.427734 113.83594 L 123.37305 67.164062 C 124.50294 65.205996 124.50294 62.794004 123.37305 60.835938 L 96.427734 14.164062 C 95.297065 12.20511 93.20715 10.998215 90.945312 10.998047 L 37.054688 10.998047 z M 42.158203 21.037109 L 85.841797 21.037109 C 87.675192 21.037246 89.368662 22.015633 90.285156 23.603516 L 112.12695 61.435547 C 113.04281 63.022712 113.04281 64.977287 112.12695 66.564453 L 90.285156 104.39648 C 89.368661 105.98436 87.675191 106.96275 85.841797 106.96289 L 42.158203 106.96289 C 40.324809 106.96275 38.631339 105.98436 37.714844 104.39648 L 15.873047 66.564453 C 14.957181 64.977287 14.957181 63.022712 15.873047 61.435547 L 37.714844 23.603516 C 38.631339 22.015633 40.324809 21.037246 42.158203 21.037109 z "
       id="path5104" />
    <g
       id="g6515"
       transform="matrix(0.19654531,0,0,0.19654531,26.10284,25.280574)"
       style="fill:#ffffff">
      <path
         style="fill:#ffffff;stroke-width:0.1965453"
         d="M 55.744141 25.28125 C 54.984063 25.28125 54.369141 25.896172 54.369141 26.65625 L 54.369141 38.646484 L 48.865234 38.646484 L 48.865234 33.234375 C 48.865234 32.474297 48.25031 31.859375 47.490234 31.859375 C 46.730156 31.859375 46.115234 32.474297 46.115234 33.234375 L 46.115234 38.728516 C 41.799682 39.186098 38.383026 42.587142 37.90625 46.900391 L 32.412109 46.900391 C 31.652032 46.900391 31.037109 47.517266 31.037109 48.277344 C 31.037109 49.037422 31.652032 49.652344 32.412109 49.652344 L 37.859375 49.652344 L 37.859375 55.15625 L 27.478516 55.15625 C 26.718438 55.15625 26.103516 55.771172 26.103516 56.53125 C 26.103516 57.291328 26.718438 57.90625 27.478516 57.90625 L 37.859375 57.90625 L 37.859375 63.410156 L 32.412109 63.410156 C 31.652032 63.410156 31.037109 64.027031 31.037109 64.787109 C 31.037109 65.547187 31.652032 66.162109 32.412109 66.162109 L 37.859375 66.162109 L 37.859375 71.666016 L 27.478516 71.666016 C 26.718438 71.666016 26.103516 72.280938 26.103516 73.041016 C 26.103516 73.801094 26.718438 74.416016 27.478516 74.416016 L 37.859375 74.416016 L 37.859375 79.919922 L 32.412109 79.919922 C 31.652032 79.919922 31.037109 80.536797 31.037109 81.296875 C 31.037109 82.056953 31.652032 82.671875 32.412109 82.671875 L 37.90625 82.671875 C 38.377652 87.001245 41.788166 90.426187 46.115234 90.916016 L 46.115234 96.410156 C 46.115234 97.170234 46.730156 97.785156 47.490234 97.785156 C 48.25031 97.785156 48.865234 97.170234 48.865234 96.410156 L 48.865234 90.925781 L 54.369141 90.925781 L 54.369141 101.34375 C 54.369141 102.10383 54.984063 102.71875 55.744141 102.71875 C 56.504217 102.71875 57.121094 102.10383 57.121094 101.34375 L 57.121094 90.925781 L 62.625 90.925781 L 62.625 96.410156 C 62.625 97.170234 63.239922 97.785156 64 97.785156 C 64.760076 97.785156 65.375 97.170234 65.375 96.410156 L 65.375 90.925781 L 70.878906 90.925781 L 70.878906 101.34375 C 70.878906 102.10383 71.495781 102.71875 72.255859 102.71875 C 73.015935 102.71875 73.630859 102.10383 73.630859 101.34375 L 73.630859 90.925781 L 79.134766 90.925781 L 79.134766 96.410156 C 79.134766 97.170234 79.749688 97.785156 80.509766 97.785156 C 81.269842 97.785156 81.884766 97.170234 81.884766 96.410156 L 81.884766 90.916016 C 86.211832 90.426187 89.621163 87.001245 90.091797 82.671875 L 95.587891 82.671875 C 96.347969 82.671875 96.962891 82.056953 96.962891 81.296875 C 96.962891 80.536797 96.347969 79.919922 95.587891 79.919922 L 90.140625 79.919922 L 90.140625 74.416016 L 100.52148 74.416016 C 101.28079 74.416016 101.89648 73.801094 101.89648 73.041016 C 101.89648 72.280938 101.28079 71.666016 100.52148 71.666016 L 90.140625 71.666016 L 90.140625 66.162109 L 95.587891 66.162109 C 96.347969 66.162109 96.962891 65.547187 96.962891 64.787109 C 96.962891 64.027031 96.347969 63.410156 95.587891 63.410156 L 90.140625 63.410156 L 90.140625 57.90625 L 100.52148 57.90625 C 101.28079 57.90625 101.89648 57.291328 101.89648 56.53125 C 101.89648 55.771172 101.28079 55.15625 100.52148 55.15625 L 90.140625 55.15625 L 90.140625 49.652344 L 95.587891 49.652344 C 96.347969 49.652344 96.962891 49.037422 96.962891 48.277344 C 96.962891 47.517266 96.347969 46.900391 95.587891 46.900391 L 90.091797 46.900391 C 89.61579 42.587142 86.200317 39.186098 81.884766 38.728516 L 81.884766 33.234375 C 81.884766 32.474297 81.269842 31.859375 80.509766 31.859375 C 79.749688 31.859375 79.134766 32.474297 79.134766 33.234375 L 79.134766 38.646484 L 73.630859 38.646484 L 73.630859 26.65625 C 73.630859 25.896172 73.015935 25.28125 72.255859 25.28125 C 71.495781 25.28125 70.878906 25.896172 70.878906 26.65625 L 70.878906 38.646484 L 65.375 38.646484 L 65.375 33.234375 C 65.375 32.474297 64.760076 31.859375 64 31.859375 C 63.239922 31.859375 62.625 32.474297 62.625 33.234375 L 62.625 38.646484 L 57.121094 38.646484 L 57.121094 26.65625 C 57.121094 25.896172 56.504217 25.28125 55.744141 25.28125 z M 48.201172 43.152344 L 79.798828 43.152344 C 82.576976 43.152344 84.847656 45.423024 84.847656 48.201172 L 84.847656 79.798828 C 84.847656 82.576976 82.576976 84.847656 79.798828 84.847656 L 48.201172 84.847656 C 45.423024 84.847656 43.152344 82.576976 43.152344 79.798828 L 43.152344 48.201172 C 43.152344 45.423024 45.423024 43.152344 48.201172 43.152344 z M 48.201172 45.351562 C 46.603072 45.351563 45.351562 46.603072 45.351562 48.201172 L 45.351562 79.798828 C 45.351564 81.396928 46.603072 82.648438 48.201172 82.648438 L 79.798828 82.648438 C 81.396928 82.648437 82.648438 81.396928 82.648438 79.798828 L 82.648438 48.201172 C 82.648437 46.603072 81.396928 45.351562 79.798828 45.351562 L 48.201172 45.351562 z M 53.902344 50.720703 L 56.222656 50.720703 L 60.910156 77.279297 L 58.574219 77.279297 L 57.644531 71.388672 L 52.378906 71.388672 L 51.449219 77.279297 L 49.179688 77.279297 L 49.179688 77.210938 L 53.902344 50.720703 z M 70 50.789062 L 72.353516 50.789062 L 72.353516 77.279297 L 70 77.279297 L 70 50.789062 z M 55.019531 54.953125 L 52.683594 69.306641 L 57.339844 69.306641 L 55.019531 54.953125 z M 63.585938 74.300781 L 66.158203 74.300781 L 66.158203 77.279297 L 63.585938 77.279297 L 63.585938 74.300781 z M 76.246094 74.300781 L 78.820312 74.300781 L 78.820312 77.279297 L 76.246094 77.279297 L 76.246094 74.300781 z "
         transform="matrix(5.0878853,0,0,5.0878853,-132.80826,-128.62466)"
         id="path6503" />
    </g>
    <g
       aria-label="A.I."
       style="font-style:normal;font-variant:normal;font-weight:normal;font-stretch:condensed;font-size:34.66666794px;line-height:1.25;font-family:'Agency FB';-inkscape-font-specification:'Agency FB, Condensed';font-variant-ligatures:normal;font-variant-caps:normal;font-variant-numeric:normal;font-feature-settings:normal;text-align:start;letter-spacing:0px;word-spacing:0px;writing-mode:lr-tb;text-anchor:start;fill:#000000;fill-opacity:1;stroke:none"
       id="text6523" />
  </g>
</svg>
