<svg height="394pt" viewBox="-4 0 394 394" width="394pt" xmlns="http://www.w3.org/2000/svg"><path d="m135.816406 144h114v115h-114zm0 0"/><path d="m378.632812 166c3.863282 0 7-3.132812 7-7s-3.136718-7-7-7h-52.816406v-28h27.714844c3.867188 0 7-3.132812 7-7s-3.132812-7-7-7h-27.960938c-2.421874-21.945312-19.796874-39.246094-41.753906-41.574219v-27.957031c0-3.867188-3.132812-7-7-7-3.867187 0-7 3.132812-7 7v27.53125h-28v-61c0-3.867188-3.132812-7-7-7-3.867187 0-7 3.132812-7 7v61h-28v-27.53125c0-3.867188-3.132812-7-7-7-3.867187 0-7 3.132812-7 7v27.53125h-28v-61c0-3.867188-3.132812-7-7-7-3.867187 0-7 3.132812-7 7v61h-28v-27.53125c0-3.867188-3.132812-7-7-7-3.867187 0-7 3.132812-7 7v27.957031c-21.957031 2.328125-39.332031 19.628907-41.757812 41.574219h-27.957032c-3.867187 0-7 3.132812-7 7s3.132813 7 7 7h27.714844v28h-52.816406c-3.867188 0-7 3.132812-7 7s3.132812 7 7 7h52.816406v28h-27.714844c-3.867187 0-7 3.132812-7 7s3.132813 7 7 7h27.714844v28h-52.816406c-3.867188 0-7 3.132812-7 7s3.132812 7 7 7h52.816406v28h-27.714844c-3.867187 0-7 3.132812-7 7s3.132813 7 7 7h27.957032c2.398437 22.027344 19.742187 39.449219 41.757812 41.941406v27.957032c0 3.867187 3.132813 7 7 7 3.867188 0 7-3.132813 7-7v-27.898438h28v53c0 3.867188 3.132813 7 7 7 3.867188 0 7-3.132812 7-7v-53h28v27.898438c0 3.867187 3.132813 7 7 7 3.867188 0 7-3.132813 7-7v-27.898438h28v53c0 3.867188 3.132813 7 7 7 3.867188 0 7-3.132812 7-7v-53h28v27.898438c0 3.867187 3.132813 7 7 7 3.867188 0 7-3.132813 7-7v-27.957032c22.015625-2.492187 39.359375-19.914062 41.753906-41.941406h27.960938c3.867188 0 7-3.132812 7-7s-3.132812-7-7-7h-27.714844v-28h52.816406c3.863282 0 7-3.132812 7-7s-3.136718-7-7-7h-52.816406v-28h27.714844c3.867188 0 7-3.132812 7-7s-3.132812-7-7-7h-27.714844v-28zm-113.816406 100c0 3.867188-3.132812 7-7 7h-129c-3.867187 0-7-3.132812-7-7v-129c0-3.867188 3.132813-7 7-7h129c3.867188 0 7 3.132812 7 7zm0 0"/></svg>