<svg height="512pt" viewBox="-80 0 512 512" width="512pt" xmlns="http://www.w3.org/2000/svg"><path d="m301.757812 77.265625c-33.21875-49.824219-78-77.265625-126.09375-77.265625-48.089843 0-92.867187 27.441406-126.085937 77.265625-31.972656 47.957031-49.578125 111.429687-49.578125 178.734375 0 67.300781 17.605469 130.777344 49.578125 178.730469 33.21875 49.828125 77.996094 77.269531 126.085937 77.269531 48.09375 0 92.875-27.441406 126.09375-77.269531 31.96875-47.953125 49.574219-111.429688 49.574219-178.730469 0-67.304688-17.605469-130.777344-49.574219-178.734375zm19.566407 179.722656-3.238281-22.816406-4.292969-19.824219c-.023438-.117187-.050781-.234375-.070313-.351562-.285156-1.519532-.882812-3.421875-1.511718-5.433594-.46875-1.5-.953126-3.046875-1.417969-4.742188l-3.355469-11.484374c-1.460938-3.804688-2.964844-7.722657-4.511719-11.746094-.019531-.046875-.035156-.09375-.054687-.140625l-2.265625-6.078125c-.347657-.8125-.808594-1.75-1.292969-2.734375-.421875-.859375-.84375-1.71875-1.25-2.59375l-5.648438-11.992188c-8.40625-15.160156-18.132812-28.894531-28.15625-39.757812-9.488281-9.453125-20.292968-17.507813-31.3125-23.332031l-8.011718-3.085938c-.761719-.289062-1.511719-.605469-2.257813-.929688-.207031-.089843-.414062-.183593-.621093-.269531-1.113282-.242187-2.214844-.476562-3.308594-.707031-.066406-.015625-.132813-.027344-.199219-.042969-2.4375-.550781-4.800781-1.128906-7.050781-1.71875l-5.765625-.382812c-1.53125-.058594-2.855469-.226563-3.839844-.355469-.234375-.03125-.460937-.066406-.691406-.089844-.039063.003906-.078125.007813-.113281.011719l-6.074219.546875c-.183594.015625-.363281.027344-.546875.039062-1.304688.070313-2.554688.136719-3.738282.203126l-3.039062.773437c-.046875.015625-.09375.023437-.140625.035156-3.328125.820313-5.820313 1.355469-7.390625 1.671875-1.523438.660156-3.976562 1.691406-7.148438 2.917969-.0625.023437-.121093.046875-.183593.070313l-2.820313 1.054687-3.503906 2.125c-.148438.085937-.296875.175781-.445312.257813l-1.414063.792968c-1.242187.695313-2.539063 1.425782-3.886719 2.175782-.058594.03125-.113281.0625-.175781.09375-.230469.1875-.570313.472656-.839844.699218-.816406.6875-1.828125 1.539063-3.023437 2.390625l-4.761719 3.5625c-1.855469 1.914063-3.691406 3.742188-5.472656 5.445313-.039063.035156-.078125.070312-.117188.109375l-2.539062 2.371093c-.164063.207032-.421875.539063-.621094.800782-.460937.597656-.925781 1.191406-1.394531 1.757812-1.8125 2.257813-3.710938 4.523438-5.65625 6.746094-6.792969 9.824219-12.847656 20.863281-17.554688 32.007812-4.1875 11.207032-7.523437 23.503907-9.921875 36.5625-.328125 3.503907-.667969 6.589844-1.039062 9.40625-.085938.769532-.199219 1.519532-.308594 2.261719-.066406.449219-.136719.910157-.171875 1.21875l-.109375 4.101563c0 .054687-.003906.105468-.007813.160156-.097656 2.726562-.25 5.421875-.445312 8.03125l.03125.769531c.097656 2.179688.191406 4.246094.226562 6.3125.066407 1.398438.050782 2.625.035157 3.628907-.007813.582031-.019531 1.375.007812 1.636718.019531.136719.03125.210938.046875.34375.285156 2.273438.535156 4.5625.738282 6.796875.144531 1.617188.269531 3.234375.375 4.828125l.695312 3.628906c.011719.058594.023438.121094.035156.183594.6875 3.792969 1.078125 6.507813 1.28125 8.039063.429688 1.496093 1.152344 4.132812 1.992188 7.671875.019531.074218.035156.148437.050781.222656l.671875 3.015625c.515625 1.347656.992188 2.644531 1.449219 3.941406.695312 1.976563 1.304687 3.855469 1.871093 5.746094.09375.195313.199219.394531.300782.59375.390625.757813.90625 1.769531 1.40625 2.964844.710937 1.570312 1.351562 3.113281 1.957031 4.621093 1.046875 1.691407 1.996094 3.332032 2.886719 4.984376.054687.097656.105468.195312.15625.296874l.933594 1.816407c.304687.394531.710937.910156 1.148437 1.53125 1.171875 1.59375 2.3125 3.277343 3.398437 5.015625 4.164063 4.785156 8.507813 8.816406 12.640626 11.738281 3.1875 1.679687 6.582031 2.890625 10.121093 3.609375 1.171875-.097656 2.28125-.128906 3.347657-.121094.015624-.003906.035156-.007812.050781-.011718.890625-.226563 1.757812-.410157 2.609375-.554688.492187-.222656 1.003906-.441406 1.542968-.652344 3.132813-1.410156 5.3125-3.128906 6.632813-4.167968 6.851563-5.398438 12.886719-4.386719 16.746094-2.589844 5.132812 2.394531 8.496093 7.507812 8.671875 13.167968.175781 5.648438-2.796875 10.664063-7.332032 13.363282-2.207031 1.726562-6.683593 5.089844-13.011718 7.851562-.25.109375-.503906.210938-.761719.308594-.242187.101562-.84375.402344-1.28125.625l-.253906.125c-1.871094.933594-3.917969 1.464844-6.007813 1.5625-.007812 0-.019531.003906-.027344.007812l-1.484374.4375c-.582032.167969-1.167969.300782-1.765626.398438-2.113281.347656-3.851562.222656-4.785156.125-.105468 0-.496094.011719-1.335937.125-.683594.097656-1.367188.144531-2.054688.144531-.765625 0-1.527343-.058593-2.285156-.175781-7.914063-1.21875-15.46875-3.792969-22.453125-7.648438-.417969-.230468-.824219-.480468-1.21875-.75-6.820312-4.664062-13.511719-10.828124-19.890625-18.332031-.523437-.617187-1-1.28125-1.421875-1.976562-.851562-1.414063-1.714844-2.707031-2.636719-3.953125-.101562-.140625-.203125-.28125-.300781-.425782-.039062-.046874-.132812-.167968-.226562-.285156-.523438-.667968-1.316407-1.679687-2.101563-2.980468-.179687-.300782-.347656-.605469-.507813-.917969l-1.320312-2.582031c-.75-1.375-1.570312-2.769532-2.511719-4.25-.488281-.773438-.90625-1.589844-1.25-2.4375-.695312-1.734376-1.355469-3.375-2.019531-4.824219-.105469-.234375-.210938-.472657-.304688-.710938-.109374-.253906-.265624-.53125-.40625-.8125-.6875-1.34375-1.710937-3.34375-2.402343-5.875-.410157-1.359375-.855469-2.726562-1.363281-4.171875-.460938-1.3125-.957032-2.640625-1.511719-4.058594-.28125-.71875-.507813-1.453124-.675781-2.207031l-.894532-4.042969c-1.035156-4.34375-1.847656-6.996093-1.855468-7.023437-.007813-.03125-.015626-.0625-.023438-.097656-.128906-.433594-.242188-.875-.335938-1.328125-.039062-.203125-.0625-.410156-.097656-.617188-.039062-.246094-.089844-.488281-.113281-.738281-.003906-.023437-.300781-2.617187-1.144531-7.320313l-.867188-4.515624c-.125-.640626-.207031-1.289063-.242187-1.945313-.09375-1.597656-.21875-3.234375-.367188-4.863281-.167969-1.839844-.371093-3.730469-.605469-5.613282-.359374-2.503906-.328124-4.703124-.304687-6.324218.007813-.730469.019531-1.355469-.007813-1.828125-.011718-.203125-.019531-.40625-.023437-.609375-.027344-1.726563-.113281-3.671875-.207031-5.726563l-.074219-1.722656c-.023437-.617187-.015625-1.234375.035156-1.855469.199219-2.4375.347657-4.992187.445313-7.585937l.007812-.40625c.035156-1.347657.070313-2.710938.113282-4.09375.003906-.199219.011718-.398438.027343-.59375.101563-1.5.296875-2.792969.453125-3.832031.0625-.417969.128906-.839844.179688-1.277344.011718-.101563.023437-.207032.039062-.308594.347656-2.632812.667969-5.582031.984375-9.023438.039063-.4375.097657-.871093.175781-1.300781 2.746094-15.167969 6.640626-29.523437 11.574219-42.667969.066407-.183593.140625-.363281.214844-.542968 5.636719-13.410156 12.96875-26.722656 21.199219-38.503906.324218-.464844.675781-.910157 1.050781-1.339844 1.867187-2.109375 3.683594-4.269532 5.398437-6.414063.078126-.097656.15625-.191406.234376-.289062.253906-.300781.5-.621094.746093-.941407.71875-.933593 1.613281-2.089843 2.742188-3.277343.207031-.222657.425781-.4375.644531-.644531l2.960938-2.765626c1.726562-1.648437 3.523437-3.453124 5.351562-5.359374.570312-.597657 1.191406-1.144532 1.855469-1.640626l5.890625-4.40625c.132812-.101562.265625-.195312.398437-.289062.203125-.144531.734375-.589844 1.121094-.917969 1.464844-1.230469 3.429687-2.882812 6.03125-4.210937 1.210937-.675782 2.382813-1.332032 3.507813-1.964844l1.992187-1.152344 3.679687-2.230468c.8125-.496094 1.667969-.910157 2.558594-1.242188l4.070313-1.519531c4.4375-1.71875 7.109375-2.9375 7.136719-2.949219.128906-.058594.257812-.101562.386718-.152344.226563-.097656.457032-.191406.691406-.277344.25-.089843.503907-.175781.753907-.253906.21875-.066406.433593-.128906.652343-.1875.28125-.070312.5625-.136718.84375-.191406.117188-.023438.226563-.058594.34375-.078125.085938-.015625 2.675782-.480469 7.242188-1.601563l4.421875-1.132812c.941406-.238281 1.898437-.386719 2.863281-.4375 1.546875-.085938 3.214844-.179688 4.992188-.273438l5.464844-.488281c3.179687-.40625 5.859374-.0625 7.667968.171875.40625.054688.960938.125 1.152344.132813.195312.003906.378906.015625.570312.027343l7.496094.496094c.992188.066406 1.976563.230469 2.9375.492188 2.238282.605468 4.652344 1.203125 7.175782 1.777344 1.375.289062 2.765624.589843 4.171874.890624.351563.074219.695313.164063 1.039063.261719 1.769531.515625 3.25 1.15625 4.328125 1.625.320312.136719.636719.28125.964844.402344.035156.015625.070312.027344.101562.039063l8.863282 3.410156c.523437.203125 1.035156.433594 1.53125.691406 6.992187 3.632812 13.765624 7.867188 20.277343 12.660156 3.605469 4.480469 7.09375 9.242188 10.453125 14.285156 28.730469 43.074219 44.546875 100.640626 44.546875 162.085938 0 .332031-.007812.660156-.007812.988281zm-143.425781-226.945312-8.363282 2.703125c-.058594.023437-.121094.039062-.179687.058594l-4.414063 1.371093-5.324218 2.644531c-.054688.027344-.109376.054688-.167969.078126l-7.144531 3.429687c-.171876.082031-.347657.164063-.519532.238281-.417968.230469-1.390625.914063-2.105468 1.417969-1.019532.714844-2.164063 1.523437-3.460938 2.328125l-7.132812 4.683594-7.480469 6.46875c-.054688.046875-.113281.097656-.171875.144531-1.269532 1.066406-2.554688 2.144531-3.851563 3.234375-.394531.394531-.933593.988281-1.457031 1.566406-.59375.65625-1.1875 1.316406-1.789062 1.945313l-7.871094 8.335937c-10.082032 12.605469-19.265625 27.277344-26.589844 42.492188-6.734375 15.195312-12.488281 32.664062-16.652344 50.558594l-2.199218 12.867187c-.148438.894531-.324219 1.808594-.5 2.71875-.199219 1.042969-.375 1.953125-.488282 2.75l-.574218 6.058594c-.402344 3.980469-.820313 7.835937-1.261719 11.546875l-.308594 10.410156c-.023437 1.675781-.109375 3.210938-.191406 4.570312-.09375 1.671876-.175781 3.113282-.101563 4.183594.007813.144532.015625.289063.023438.433594l.359375 9.121094c.003906.070312.007812.144531.007812.214844l.175781 7.195312c.25 2.191406.480469 4.210938.6875 6.054688.679688 6.21875 1.046876 10.335937 1.195313 12.058593.339844 1.726563 1.125 5.796875 2.128906 11.640625l.929688 5.597656 1.710937 6.359376c.023438.085937.046875.171874.066406.257812l1.972657 7.90625c.042969.179688.085937.359375.125.539062.125.601563.5625 1.769532.984375 2.898438.433594 1.15625.921875 2.46875 1.382812 3.933594l2.632813 7.921875c1.367187 2.976562 2.601562 5.753906 3.753906 8.464843.019531.039063.035156.082032.050781.125l1.71875 4.136719c.175782.339844.449219.816407.71875 1.28125.390625.683594.78125 1.367188 1.15625 2.066407 1.515625 2.738281 3.035156 5.601562 4.515625 8.519531 6.421875 10.011719 13.589844 18.898437 20.769531 25.75 6.566407 5.5 13.6875 9.894531 21.1875 13.085937 2.199219.484375 4.167969.984375 5.980469 1.519532.550781.148437 1.039063.300781 1.449219.433593l1.398438.085938c.109374.003906.222656.015625.335937.023437 1.632813.132813 3.246094.316406 4.820313.554688 1.179687-.117188 2.394531-.226563 3.652343-.289063 1.117188-.097656 2.089844-.097656 2.832031-.085937 1.394532-.371094 2.765626-.691406 4.09375-.964844.804688-.164062 1.613282-.316406 2.414063-.449219l1.226563-.53125c.117187-.050781.230468-.097656.34375-.144531 2.015624-.816406 3.652343-1.398438 4.921874-1.816406 1.167969-.722656 2.742188-1.652344 4.667969-2.683594.125-.066406.25-.128906.378907-.191406l1.066406-.53125c.707031-.601563 1.414062-1.179688 2.113281-1.730469 1.164063-.921875 2.347656-1.800781 3.519531-2.617187.546875-.625 1.253906-1.429688 2.152344-2.28125.996094-1.019532 1.980469-1.941407 2.875-2.761719 1.070312-1.476563 2.144531-2.871094 3.207031-4.164063.09375-.113281.191407-.230468.289063-.34375.351562-.402344.707031-.808594 1.0625-1.21875.003906-.003906.007812-.011718.011718-.019531.320313-.566406.644532-1.125.976563-1.652344 1.070313-1.769531 2.203125-3.496093 3.378906-5.144531 3.558594-6.949219 6.585938-14.34375 8.777344-21.472656 1.675781-6.941406 2.820313-14.457032 3.410156-22.363282-.121093-2.242187-.167969-4.148437-.140625-5.917968-.003906-.558594.015625-1.09375.039063-1.625l-.222657-1.726563c-.015624-.097656-.027343-.195312-.039062-.296875-.183594-1.617187-.304688-3.136718-.371094-4.597656-.269531-1.230469-.527344-2.476562-.738281-3.726562-1.253906-6.390626-2.753906-10.679688-3.5625-12.992188-.898437-2.5625-2.996094-8.5625 1.046875-14.816406 2.511719-3.890625 6.703125-6.410156 11.316406-6.8125 7.585938-.652344 14.339844 4.449218 15.941406 11.6875.003907.007812.007813.019531.007813.027344.996094 2.839843 3.066406 8.75 4.738281 17.394531.03125.148437.058594.296875.082032.445312.148437.933594.441406 2.242188.753906 3.628907.222656.996093.34375 2.023437.363281 3.042968.011719.945313.089844 2.035156.21875 3.238282l.339844 2.589843c.039062.285157.066406.570313.085937.855469.105469 1.4375.046875 2.636719.011719 3.351562l-.011719.285157c0 .121093 0 .242187-.003906.367187-.019531 1.269532.027344 2.835938.148438 4.789063.035156.644531.035156 1.292969-.007813 1.9375-.691406 10.105469-2.164063 19.789062-4.367187 28.777343-.0625.265626-.136719.527344-.214844.789063-2.875 9.460937-6.746094 18.875-11.503906 27.976563-.359376.6875-.765626 1.339843-1.222657 1.960937-.929687 1.257813-1.792969 2.554687-2.640625 3.964844-.085937.140625-.167968.277343-.257812.410156-.054688.097656-.144532.253906-.230469.410156-.464844.820313-1.101563 1.945313-2.007813 3.160157-.21875.292968-.445312.578124-.6875.855468-.578124.671875-1.152343 1.332032-1.722656 1.984375-.867187 1.066407-1.773437 2.269531-2.6875 3.578125-.652344.9375-1.410156 1.792969-2.257812 2.554688-1.195313 1.074218-2.101563 1.898437-2.886719 2.71875-.1875.191406-.378906.378906-.574219.5625-.105468.121094-.214844.246094-.320312.367187-1.042969 1.199219-2.730469 3.140625-5.273438 4.746094-.707031.480469-1.441406 1.023437-2.183594 1.613281-.792968.625-1.601562 1.304688-2.421874 2.027344-.976563.863281-2.058594 1.59375-3.222657 2.175781l-2.570312 1.285157c-2.324219 1.25-3.738281 2.210937-3.753907 2.222656-1.644531 1.148437-3.4375 1.917968-5.28125 2.332031-.550781.171875-1.589843.519531-3.074218 1.121094l-2.867188 1.242187c-1.304687.566406-2.679687.945313-4.089844 1.125-.777343.101563-1.597656.238282-2.441406.414063-.925781.1875-1.894531.421875-2.894531.699219-3.277344 1.019531-6.019531.929687-7.53125.878906l-.152344-.003906c-.234375.019531-.472656.035156-.707031.042968-.855469.03125-2.027344.152344-3.269531.277344l-1.074219.105469c-.488281.050781-.976562.074219-1.46875.074219-.914062 0-1.824219-.085938-2.726562-.25-1.226563-.230469-2.539063-.402344-3.898438-.515626l-2.8125-.171874c-.480469-.027344-.960938-.078126-1.433594-.152344-1.882812-.289063-3.378906-.796875-4.273437-1.101563l-.261719-.085937c-.15625-.042969-.308594-.085938-.464844-.132813-1.421875-.425781-3.105468-.839843-5.148437-1.261719-.890625-.1875-1.761719-.449218-2.605469-.792968-10.988281-4.46875-21.332031-10.769532-30.742188-18.722656-.214843-.179688-.425781-.367188-.628906-.5625-9.328125-8.828126-18.128906-19.710938-26.164062-32.34375-.265625-.421876-.515625-.855469-.738282-1.304688-1.429687-2.84375-2.898437-5.621094-4.367187-8.261719-.054687-.097656-.105469-.199219-.160156-.296875-.222657-.421875-.460938-.832031-.699219-1.246094-.574219-.996093-1.289062-2.238281-1.972656-3.691406-.097656-.210937-.191406-.425781-.28125-.640625l-1.863282-4.492187c-1.121093-2.636719-2.335937-5.359375-3.703124-8.316406-.238282-.515626-.449219-1.042969-.625-1.578126l-2.9375-8.835937c-.03125-.097656-.0625-.195313-.09375-.296875-.222657-.710938-.542969-1.566406-.878907-2.476562-.707031-1.890626-1.582031-4.226563-2.171875-6.90625l-1.882812-7.542969-1.863282-6.917969c-.128906-.480469-.230468-.964844-.3125-1.457031l-1.035156-6.230469c-1.230468-7.148438-2.117187-11.511719-2.128906-11.554688-.015625-.074218-.019531-.148437-.03125-.222656-.046875-.234375-.078125-.472656-.109375-.710937-.039063-.261719-.074219-.523438-.097656-.785157-.007813-.046874-.015625-.09375-.019531-.144531-.003907-.039062-.339844-4.339843-1.175782-11.96875-.21875-1.960937-.472656-4.191406-.753906-6.625-.050781-.445312-.082031-.894531-.09375-1.347656l-.1875-7.726563-.351562-8.820312c-.179688-2.855469-.03125-5.433594.101562-7.714844.066406-1.179687.132812-2.292968.140625-3.328125 0-.09375.003906-.1875.007813-.28125l.332031-11.214843c.011719-.445313.046875-.890626.097656-1.335938.449219-3.722656.875-7.609375 1.269531-11.5625l.601563-6.285156c.015625-.160156.035156-.320313.054687-.480469.226563-1.769531.535156-3.375.808594-4.792969.132812-.683594.265625-1.375.382812-2.078125l1.433594-8.378906c7.496094-25.566406 18.148438-49.035156 31.660156-69.300781 27.476563-41.207032 63.390626-63.902344 101.125-63.902344.746094 0 1.492188.023438 2.234376.042969zm-147.890626 224.949219c.3125 2.15625 1.058594 7.355468 2.15625 14.996093.339844 2.425781.695313 5.03125 1.085938 7.847657l1.980469 8.988281c.007812.035156.015625.070312.023437.105469l2.285156 10.726562c.023438.113281.046876.226562.066407.339844.292969 1.53125.890625 3.449218 1.523437 5.476562.464844 1.488282.945313 3.023438 1.40625 4.707032l3.355469 11.480468c1.464844 3.804688 2.972656 7.730469 4.519531 11.761719.015625.046875.03125.089844.050782.136719l2.265624 6.074218c.351563.816407.816407 1.761719 1.304688 2.757813.425781.863281.851562 1.730469 1.257812 2.609375l5.628907 11.949219c8.40625 15.15625 18.128906 28.890625 28.148437 39.757812 9.492188 9.453125 20.300782 17.507813 31.320313 23.332031l7.996093 3.082032c.773438.292968 1.535157.617187 2.289063.941406.203125.089844.402344.179688.605469.265625l3.304687.703125c.0625.015625.128907.027344.191407.042969 2.347656.527343 4.710937 1.105469 7.050781 1.71875l5.773437.386719c1.53125.058593 2.855469.226562 3.839844.351562.230469.03125.460938.066406.6875.089844.039062 0 .078125-.003906.117188-.007813l6.105468-.546875c.160156-.011718.324219-.023437.484375-.035156l3.765625-.207031 3.082032-.789063c.035156-.007812.066406-.015625.101562-.023437 3.324219-.816407 5.8125-1.351563 7.386719-1.667969 1.523437-.660156 3.976562-1.691406 7.144531-2.921875.058594-.019531.117188-.042969.175781-.066406l2.839844-1.058594c1.101563-.667969 2.261719-1.375 3.484375-2.113281.152344-.09375.308594-.1875.46875-.273438l5.285156-2.957031c.058594-.035156.117188-.066406.179688-.101563.230468-.183593.578125-.476562.847656-.703124.816406-.6875 1.824219-1.535157 3.019531-2.386719l4.765625-3.5625c1.832032-1.890625 3.660156-3.710938 5.449219-5.429688.046875-.042969.09375-.085937.140625-.128906l2.539062-2.371094c.164063-.207031.417969-.539062.621094-.800781.460938-.597656.925782-1.191406 1.394532-1.753906 1.820312-2.273438 3.71875-4.539063 5.652343-6.746094 6.785157-9.816406 12.84375-20.859375 17.554688-32.003906 4.191406-11.214844 7.523437-23.511719 9.917969-36.566406.335937-3.566407.679687-6.65625 1.042968-9.414063.089844-.765625.199219-1.511719.308594-2.253906.066406-.449219.136719-.90625.171875-1.214844l.109375-4.105469c0-.050781.003906-.101562.003906-.152344.101563-2.730468.25-5.429687.449219-8.039062l-.023437-.601562c-.101563-2.238282-.195313-4.359376-.238282-6.476563-.066406-1.394531-.046875-2.617187-.03125-3.617187.007813-.582032.019532-1.382813-.007812-1.644532-.023438-.140625-.03125-.214844-.050782-.355468-.289062-2.292969-.535156-4.582032-.738281-6.800782-.144531-1.605468-.273437-3.226562-.375-4.828125l-.691406-3.601562c-.011719-.066407-.023437-.136719-.039063-.203125-.683593-3.792969-1.074218-6.503906-1.277343-8.039063-.429688-1.496093-1.152344-4.128906-1.992188-7.660156-.019531-.074219-.035156-.148437-.050781-.21875l-.671875-3.027344c-.496094-1.292969-.984375-2.617187-1.449219-3.941406-.699218-1.988281-1.3125-3.867187-1.867187-5.738281-.097657-.199219-.203125-.394532-.304688-.59375-.390625-.761719-.90625-1.773438-1.40625-2.976563-.714843-1.574219-1.363281-3.148437-1.957031-4.613281-1.023438-1.65625-1.988281-3.324219-2.886719-4.980469-.054687-.105469-.109375-.210937-.164062-.316406l-.929688-1.8125c-.386719-.496094-.769531-.992187-1.132812-1.507813-1.171875-1.59375-2.316407-3.277343-3.40625-5.023437-4.160157-4.785156-8.503907-8.820313-12.644531-11.746094-3.183594-1.679687-6.574219-2.890625-10.117188-3.609375-1.167969.097656-2.28125.140625-3.351562.121094-.011719.003906-.023438.007812-.035157.011719-.894531.226562-1.769531.410156-2.628906.554687-.492187.226563-1.007813.445313-1.542969.65625-3.128906 1.410156-5.3125 3.125-6.628906 4.164063-6.847656 5.394531-12.878906 4.390625-16.734375 2.597656-5.128906-2.386719-8.5-7.492187-8.683594-13.144531-.1875-5.660156 2.789063-10.691406 7.332031-13.394532 2.210938-1.730468 6.683594-5.089843 13.007813-7.851562.257813-.109375.519531-.21875.789063-.316406.261718-.109375.910156-.4375 1.386718-.675782l.109375-.054687c1.875-.9375 3.921875-1.472656 6.011719-1.570313.011719 0 .023438-.003906.035156-.003906l1.492188-.441406c.574218-.167969 1.164062-.300781 1.757812-.398438 2.113282-.347656 3.847656-.222656 4.785156-.128906.089844.023438.472657-.003906 1.320313-.121094 1.449219-.203124 2.917969-.191406 4.367187.03125 7.914063 1.222657 15.464844 3.792969 22.445313 7.648438.417969.230469.828125.480469 1.222656.75 6.824219 4.667969 13.515625 10.839844 19.882813 18.335938.523437.609374.992187 1.265624 1.40625 1.949218.863281 1.429688 1.734375 2.734375 2.664062 3.992188.089844.121094.175782.242187.261719.367187.042969.054688.136719.171875.230469.289063.535156.683594 1.347656 1.714844 2.148437 3.054687.167969.285157.328125.574219.480469.871094l1.328125 2.59375c.757813 1.394531 1.597656 2.816406 2.492187 4.222656.496094.78125.921876 1.609375 1.265626 2.46875.664062 1.648438 1.347656 3.355469 2.023437 4.820313.105469.238281.210937.480468.308594.722656.109375.25.261719.527344.40625.808594.6875 1.34375 1.707031 3.339844 2.398437 5.875.402344 1.339844.851563 2.707031 1.363282 4.164062.476562 1.363282.984374 2.722656 1.5 4.03125.289062.734375.519531 1.484375.6875 2.25l.890624 4.023438c1.039063 4.34375 1.847657 7.003906 1.855469 7.03125.066407.210937.109375.429687.164063.644531.0625.242187.132812.480469.183594.730469.058593.289062.097656.574218.140624.863281.027344.183594.066407.367187.085938.554687.023438.179688.320312 2.746094 1.140625 7.285157.207031 1.0625.425781 2.207031.65625 3.429687l.210937 1.101563c.125.652343.207032 1.3125.246094 1.972656.089844 1.582031.210938 3.207031.359375 4.828125.167969 1.835938.371094 3.722656.609375 5.617188.363282 2.511718.328125 4.71875.304688 6.347656-.007813.726562-.019532 1.355468.007812 1.828125.011719.191406.019532.382812.023438.574219.027344 1.785156.121094 3.789062.214844 5.90625l.066406 1.550781c.027344.625.019531 1.253906-.03125 1.875-.199219 2.4375-.351563 4.988281-.445313 7.582031l-.121093 4.46875c-.003907.207031-.015626.414062-.027344.621094-.101563 1.5-.296875 2.792968-.453125 3.832031-.066407.417969-.132813.84375-.179688 1.277344-.011719.105469-.023437.214843-.039062.320312-.339844 2.558594-.664063 5.511719-.988281 9.019531-.039063.433594-.097657.863282-.175782 1.292969-2.742187 15.164063-6.636718 29.519531-11.570312 42.667969-.070313.183594-.140625.363281-.21875.542969-5.640625 13.414062-12.96875 26.730469-21.195313 38.5-.324219.464843-.679687.914062-1.054687 1.339843-1.847656 2.09375-3.667969 4.253907-5.398438 6.417969-.078125.097657-.15625.191407-.234375.285157-.253906.300781-.496093.621093-.742187.941406-.722656.933594-1.617188 2.09375-2.75 3.285156-.207032.214844-.417969.425781-.636719.632812l-2.960937 2.761719c-1.746094 1.679688-3.546876 3.480469-5.347657 5.367188-.574219.597656-1.191406 1.148437-1.855469 1.640625l-5.914062 4.417968c-.121094.089844-.242188.179688-.367188.265626-.203124.144531-.734374.59375-1.125.921874-1.464843 1.230469-3.429687 2.886719-6.027343 4.214844l-4.722657 2.640625c-1.601562.976563-3.105468 1.886719-4.503906 2.734375-.796875.480469-1.636718.886719-2.507812 1.214844l-4.085938 1.523438c-4.4375 1.722656-7.113281 2.941406-7.140625 2.957031-.121093.054687-.242187.089843-.363281.140625-.261719.113281-.527344.21875-.792969.316406-.238281.085938-.476562.164062-.714843.238281-.246094.074219-.496094.140625-.746094.203125-.265625.066406-.53125.128906-.796875.183594-.089844.015625-.175781.042969-.265625.058594s-2.675782.480468-7.238282 1.601562l-4.417968 1.128906c-.9375.238282-1.894532.386719-2.863282.441407l-4.984374.273437-5.472657.488282c-1.058593.136718-2.066406.1875-3 .1875-1.867187 0-3.453125-.203126-4.65625-.359376-.40625-.050781-.960937-.125-1.152343-.132812-.207032-.003906-.402344-.011719-.609376-.027344l-7.457031-.496094c-.988281-.066406-1.96875-.226562-2.921875-.484374-2.382812-.644532-4.808594-1.246094-7.210937-1.785157l-4.144531-.886719c-.359376-.078124-.71875-.167968-1.074219-.273437-1.75-.507813-3.214844-1.144531-4.28125-1.605469-.316407-.136718-.636719-.28125-.960938-.402344-.050781-.019531-.097656-.035156-.144531-.054687l-8.867188-3.414063c-.519531-.199218-1.027343-.429687-1.523437-.6875-6.988281-3.636718-13.761719-7.867187-20.273437-12.660156-3.601563-4.480468-7.09375-9.242187-10.453126-14.285156-28.722656-43.082031-44.539062-100.648438-44.539062-162.09375 0-.335938.007812-.671875.007812-1.007812zm143.421876 226.964843 8.371093-2.707031c.054688-.015625.105469-.03125.160157-.050781l4.429687-1.378907 5.316406-2.636718c.0625-.03125.121094-.0625.183594-.089844 2.238281-1.070312 4.625-2.214844 7.140625-3.425781.171875-.082031.34375-.160157.519531-.234375.414063-.230469 1.386719-.910156 2.101563-1.414063 1.019531-.71875 2.164062-1.523437 3.464844-2.328125l7.128906-4.6875 7.488281-6.472656c.050781-.046875.105469-.089844.15625-.132812l3.863281-3.242188c.390625-.394531.929688-.992188 1.453125-1.570312.59375-.65625 1.191407-1.3125 1.792969-1.945313l7.867188-8.332031c10.089843-12.617188 19.273437-27.292969 26.585937-42.492188 6.742187-15.199218 12.496094-32.667968 16.652344-50.5625l2.203125-12.863281c.148437-.894531.328125-1.824219.503906-2.75.199219-1.027344.375-1.929687.484375-2.71875l.578125-6.070313c.386719-3.886718.808594-7.75 1.257812-11.535156l.308594-10.414062c.023438-1.667969.109375-3.203125.1875-4.5625.097656-1.675782.179688-3.125.105469-4.195313-.007813-.140625-.015625-.277343-.019531-.414062l-.367188-9.132813c0-.074218-.003906-.152344-.007812-.226562l-.171875-7.1875-.691407-6.039063c-.679687-6.230469-1.046874-10.355469-1.191406-12.078125-.34375-1.726562-1.125-5.792968-2.128906-11.632812l-.929688-5.59375-1.710937-6.355469c-.027344-.089844-.050781-.179687-.070313-.269531l-1.972656-7.914063c-.042968-.175781-.085937-.351562-.121094-.527343-.125-.597657-.558593-1.761719-.980468-2.882813-.433594-1.164063-.925782-2.480469-1.386719-3.953125l-2.632813-7.914062c-1.347656-2.929688-2.582031-5.707032-3.757812-8.476563-.015625-.035156-.03125-.070313-.042969-.105469l-1.730469-4.15625c-.171874-.335937-.449218-.820312-.71875-1.289062-.390624-.679688-.78125-1.359375-1.148437-2.054688-1.503906-2.703125-3.019531-5.5625-4.515625-8.515625-6.425781-10.015625-13.589844-18.898437-20.769531-25.75-6.566407-5.496093-13.6875-9.894531-21.1875-13.085937-2.175781-.476563-4.140625-.976563-5.972657-1.515625-.554687-.148438-1.046874-.304688-1.453124-.4375l-1.433594-.085938c-.105469-.007812-.214844-.015625-.320313-.023437-1.617187-.132813-3.226562-.316406-4.796875-.554688-1.1875.117188-2.40625.226563-3.667968.285156-1.113282.101563-2.078126.101563-2.820313.089844-1.414063.375-2.792969.699219-4.109375.96875-.8125.164063-1.621094.316406-2.414062.445313l-1.289063.558593c-.09375.039063-.183594.078126-.277344.117188-2.011719.816406-3.644531 1.394531-4.910156 1.808594-1.164063.726562-2.742187 1.65625-4.671875 2.6875-.121094.066406-.246094.128906-.371094.191406l-1.074218.535156c-.707032.597656-1.402344 1.167969-2.101563 1.722656-1.175781.929688-2.359375 1.808594-3.527344 2.621094-.546875.628906-1.257812 1.4375-2.164062 2.296875-.988281 1.003907-1.96875 1.925781-2.863281 2.746094-1.074219 1.480469-2.136719 2.855469-3.214844 4.167969-.089844.113281-.183594.222656-.28125.332031l-1.070313 1.234375c-.007812.015625-.015625.027344-.019531.039062-.316406.554688-.636719 1.105469-.960938 1.621094-1.066406 1.769532-2.199218 3.496094-3.375 5.148438-3.5625 6.941406-6.589843 14.335937-8.785156 21.472656-1.679687 6.957031-2.824218 14.472656-3.40625 22.363281.117188 2.238281.164063 4.144531.136719 5.914063.003906.652344-.019531 1.214844-.039063 1.636718l.226563 1.761719c.011719.078125.023437.160157.03125.238281.179687 1.589844.304687 3.132813.371094 4.613282.273437 1.25.535156 2.488281.742187 3.730468 1.25 6.386719 2.753906 10.671876 3.5625 12.984376.898438 2.570312 3.007813 8.589843-1.070312 14.855468-2.535156 3.898438-6.753906 6.410156-11.386719 6.78125-.410156.035156-.816406.050782-1.21875.050782-7.050781 0-13.125-4.9375-14.628906-11.746094-.003907-.007813-.007813-.019532-.011719-.027344-.992188-2.839844-3.0625-8.75-4.738281-17.390625-.027344-.152344-.054688-.308594-.082031-.464844-.144532-.894531-.429688-2.167969-.730469-3.515625-.222657-1-.367188-2.113281-.382813-3.132812-.015625-.964844-.089844-2.050782-.222656-3.230469l-.339844-2.601563c-.035156-.289062-.066406-.582031-.085937-.871093-.105469-1.429688-.042969-2.621094-.007813-3.332031l.011719-.277344c0-.128906 0-.257813 0-.386719.023437-1.265625-.023437-2.828125-.144531-4.78125-.035156-.644531-.035156-1.289063.007812-1.933594.6875-10.09375 2.15625-19.777343 4.363282-28.78125.066406-.261719.140624-.527343.21875-.785156 2.878906-9.476563 6.75-18.894531 11.511718-27.988281.351563-.675782.753906-1.320313 1.207032-1.933594.921874-1.253906 1.8125-2.597656 2.652343-3.992188.074219-.125.152344-.25.230469-.371093.070312-.113281.160156-.277344.25-.4375.464844-.820313 1.101562-1.941407 1.996094-3.148438.226562-.300781.460937-.59375.707031-.878906l1.707031-1.964844c.871094-1.070312 1.777344-2.277343 2.703125-3.597656.648438-.929687 1.402344-1.78125 2.242188-2.539063 1.019531-.917968 2.070312-1.867187 2.921875-2.746093.175781-.183594.355468-.359375.539062-.53125.109375-.121094.21875-.25.328125-.375 1.039063-1.195313 2.722657-3.132813 5.253907-4.734375.722656-.492188 1.46875-1.046875 2.222656-1.640625.769531-.609375 1.558594-1.273438 2.40625-2.023438.976562-.863281 2.0625-1.59375 3.230468-2.175781l2.558594-1.277344c2.324219-1.253906 3.742188-2.21875 3.757813-2.226562 1.597656-1.117188 3.339843-1.863282 5.121093-2.28125.507813-.15625 1.601563-.515625 3.238282-1.175782l2.894531-1.25c1.300781-.5625 2.675781-.9375 4.082031-1.117187.742188-.09375 1.5625-.230469 2.433594-.410156.890625-.179688 1.855469-.414063 2.875-.695313 3.277344-1.019531 6.019531-.929687 7.527344-.882812l.148437.003906c.246094-.019531.488281-.035156.734375-.042969.910156-.035156 2.152344-.160156 3.464844-.296875l.828125-.082031c1.402344-.140625 2.820313-.085937 4.207031.171875 1.253906.226562 2.570313.402344 3.925782.519531l2.886718.175781c.433594.027344.863282.074219 1.292969.140626 1.925781.289062 3.445313.804687 4.355469 1.117187l.269531.085937c.132813.039063.265625.074219.398437.113282 1.464844.4375 3.15625.851562 5.171876 1.265625.894531.1875 1.769531.453125 2.617187.796875 10.984375 4.46875 21.328125 10.765625 30.742187 18.71875.214844.183594.425782.371094.628907.566406 9.324219 8.824219 18.128906 19.707031 26.164062 32.34375.265625.421875.511719.855469.738281 1.300781 1.449219 2.882813 2.917969 5.660157 4.363282 8.261719.058594.101562.113281.203125.164062.304688.222656.417968.460938.824218.695313 1.230468.578125 1.007813 1.300781 2.261719 1.988281 3.734375.09375.199219.179688.402344.265625.605469l1.867187 4.492188c1.144532 2.695312 2.355469 5.414062 3.699219 8.3125.238281.515624.445313 1.039062.625 1.578124l2.941407 8.84375c.035156.101563.066406.203126.097656.304688.222656.714844.542968 1.574219.882812 2.480469.703125 1.890625 1.574219 4.222656 2.167969 6.898437l1.875 7.535156 1.867187 6.917969c.128907.484375.234376.972657.316407 1.464844l1.035156 6.230469c1.226563 7.144531 2.113281 11.503906 2.121094 11.546875.015625.0625.019531.125.03125.1875.039062.21875.066406.441406.101562.660156.042969.292969.085938.582031.109375.875.003906.046875.015625.09375.019532.140625.003906.042969.339843 4.34375 1.171874 11.976562l.757813 6.625c.050781.441407.082031.890626.09375 1.335938l.261719 9.695312.277344 6.867188c.175781 2.847656.027343 5.421875-.101563 7.699219-.066406 1.183593-.132813 2.300781-.144531 3.335937 0 .09375-.003906.1875-.003906.277344l-.332032 11.210938c-.015625.449218-.046875.902343-.101562 1.351562-.457032 3.796875-.886719 7.683594-1.269532 11.542969l-.601562 6.300781c-.015625.15625-.03125.316406-.054688.476562-.226562 1.761719-.53125 3.359376-.804687 4.765626-.132813.691406-.265625 1.382812-.386719 2.089843l-1.4375 8.402344c-7.496094 25.5625-18.148437 49.027344-31.65625 69.289063-27.464844 41.21875-63.378906 63.914062-101.121094 63.914062-.742187 0-1.488281-.023438-2.234374-.042969zm0 0"/></svg>