# This file uses centimeters as units for non-parametric coordinates.

mtllib power box.mtl
g default
v 0.000000 0.000000 0.000000
v 0.388123 0.000000 0.000000
v 0.000000 0.848231 0.000000
v 0.388123 0.848231 0.000000
v 0.000000 0.848231 -1.332011
v 0.388123 0.848231 -1.332011
v 0.000000 0.000000 -1.332011
v 0.388123 0.000000 -1.332011
v 0.000000 0.848231 -1.222144
v 0.388123 0.848231 -1.222144
v 0.388123 0.000000 -1.222144
v 0.000000 0.000000 -1.222144
v 0.000000 0.848231 -0.110336
v 0.388123 0.848231 -0.110336
v 0.388123 0.000000 -0.110336
v 0.000000 0.000000 -0.110336
v 0.159036 0.000000 0.000000
v 0.159036 0.000000 -1.332011
v 0.159036 0.848231 -1.332011
v 0.087901 0.848038 -1.222143
v 0.087901 0.848039 -0.110335
v 0.159036 0.848231 0.000000
v 0.239641 0.000000 0.000000
v 0.239641 0.848231 0.000000
v 0.310399 0.848039 -0.110336
v 0.310399 0.848038 -1.222144
v 0.239641 0.848231 -1.332011
v 0.239641 0.000000 -1.332011
v 0.310439 0.701822 -1.222144
v 0.239671 0.701803 -1.230143
v 0.239641 0.701803 -0.103962
v 0.310439 0.701822 -0.110336
v 0.159015 0.701791 -1.230143
v 0.159036 0.701791 -0.103962
v 0.087839 0.701821 -1.222143
v 0.087839 0.701822 -0.110335
v 0.239612 0.848231 -0.103962
v 0.159057 0.848231 -0.103962
v 0.239642 0.848038 -1.230143
v 0.159035 0.848231 -1.230143
v 0.000000 0.763408 0.000000
v 0.159036 0.763408 0.000000
v 0.239641 0.763408 0.000000
v 0.388123 0.763408 0.000000
v 0.388123 0.763408 -0.110336
v 0.388123 0.763408 -1.222144
v 0.388123 0.763408 -1.332011
v 0.239641 0.763408 -1.332011
v 0.159036 0.763408 -1.332011
v 0.000000 0.763408 -1.332011
v 0.000000 0.763408 -1.222144
v 0.000000 0.763408 -0.110336
v 0.000000 0.076341 0.000000
v 0.159036 0.076341 0.000000
v 0.239641 0.076341 0.000000
v 0.388123 0.076341 0.000000
v 0.388123 0.076341 -0.110336
v 0.388123 0.076341 -1.222144
v 0.388123 0.076341 -1.332011
v 0.239641 0.076341 -1.332011
v 0.159036 0.076341 -1.332011
v 0.000000 0.076341 -1.332011
v 0.000000 0.076341 -1.222144
v 0.000000 0.076341 -0.110336
vt 0.514463 0.719357
vt 0.511101 0.746534
vt 0.483728 0.747503
vt 0.479500 0.721195
vt 0.476160 0.305707
vt 0.503631 0.307197
vt 0.508491 0.334222
vt 0.472384 0.332620
vt 0.521681 0.067027
vt 0.500664 0.065906
vt 0.404454 0.364650
vt 0.379095 0.360304
vt 0.377927 0.325539
vt 0.414761 0.326735
vt 0.556609 0.304008
vt 0.606374 0.358798
vt 0.580111 0.363966
vt 0.569155 0.327283
vt 0.434918 0.753575
vt 0.385094 0.698462
vt 0.411421 0.693906
vt 0.422064 0.729649
vt 0.504891 0.987611
vt 0.484016 0.986991
vt 0.582186 0.685018
vt 0.607649 0.690414
vt 0.608778 0.725271
vt 0.573583 0.723167
vt 0.846615 0.692043
vt 0.850481 0.723751
vt 0.568290 0.067926
vt 0.850999 0.362133
vt 0.075724 0.626229
vt 0.556135 0.677849
vt 0.139772 0.694995
vt 0.440491 0.991827
vt 0.023526 0.977664
vt 0.427316 0.369672
vt 0.136727 0.331297
vt 0.140922 0.362874
vt 0.431449 0.407133
vt 0.037982 0.662299
vt 0.041089 0.941659
vt 0.023520 0.940738
vt 0.057980 0.662045
vt 0.061096 0.941448
vt 0.075684 0.663242
vt 0.552019 0.639371
vt 0.474311 0.695104
vt 0.517138 0.690971
vt 0.467592 0.357750
vt 0.512090 0.360578
vt 0.826715 0.727076
vt 0.508022 0.964350
vt 0.482855 0.963671
vt 0.436386 0.967886
vt 0.163897 0.697233
vt 0.165031 0.362273
vt 0.160413 0.327801
vt 0.494425 0.088492
vt 0.519482 0.091266
vt 0.569357 0.091700
vt 0.826893 0.359723
vt 0.822505 0.692446
vt 0.856301 0.330279
vt 0.831287 0.325448
vt 0.458545 0.054012
vt 0.449483 0.077381
vt 0.134476 0.726896
vt 0.159488 0.731662
vt 0.557194 0.972044
vt 0.549521 0.996714
vt 0.606504 0.324017
vt 0.427006 0.299247
vt 0.384835 0.733353
vt 0.563664 0.750657
vt 0.553542 0.420482
vt 0.078740 0.940125
vt 0.433925 0.635991
vt 0.020392 0.663865
vt 0.057701 0.626011
vt 0.553271 0.371432
vt 0.037323 0.626221
vt 0.019558 0.626932
vt 0.079596 0.976955
vt 0.061669 0.977530
vt 0.041373 0.977835
vt 0.435215 0.688390
vn 0.000000 0.000000 1.000000
vn 0.000000 0.000000 1.000000
vn -0.000001 0.000000 1.000000
vn 0.000000 0.000000 1.000000
vn 0.000001 0.000000 -1.000000
vn 0.000000 0.000000 -1.000000
vn 0.000000 0.000000 -1.000000
vn 0.000000 -0.000001 -1.000000
vn 1.000000 0.000000 0.000000
vn 1.000000 0.000000 0.000000
vn 1.000000 0.000000 0.000000
vn 1.000000 0.000000 0.000000
vn -1.000000 0.000000 0.000000
vn -1.000000 0.000000 0.000000
vn -1.000000 0.000000 0.000000
vn -1.000000 0.000000 0.000000
vn 1.000000 0.000000 0.000000
vn 1.000000 0.000000 0.000000
vn 1.000000 0.000000 0.000000
vn 1.000000 0.000000 0.000000
vn -1.000000 0.000000 0.000000
vn -1.000000 0.000000 0.000000
vn -1.000000 0.000000 0.000000
vn -1.000000 0.000000 0.000000
vn 0.000000 0.000000 -1.000000
vn 0.000000 0.000000 -1.000000
vn 0.000000 0.000000 -1.000000
vn -0.000001 0.000000 -1.000000
vn 0.002022 0.999998 0.000138
vn 0.001969 0.999998 0.000180
vn 0.000782 0.999999 0.001132
vn 0.000782 0.999999 0.001132
vn 0.000780 0.999999 -0.001124
vn 0.000780 0.999999 -0.001124
vn 0.001968 0.999998 -0.000180
vn 0.002021 0.999998 -0.000138
vn 0.000001 0.000000 1.000000
vn 0.000000 0.000000 1.000000
vn 0.000000 0.000000 1.000000
vn 0.000000 0.000000 1.000000
vn 0.000000 0.000000 1.000000
vn -0.000001 0.000000 1.000000
vn 0.000000 0.000000 1.000000
vn 0.000000 0.000000 1.000000
vn -0.002213 0.999998 -0.000189
vn -0.000851 0.999999 -0.001146
vn -0.000851 0.999999 -0.001146
vn -0.002275 0.999997 -0.000145
vn -0.000854 0.999999 0.001154
vn -0.002214 0.999998 0.000189
vn -0.002277 0.999997 0.000145
vn -0.000854 0.999999 0.001154
vn 0.000000 0.000000 -1.000000
vn 0.000001 0.000000 -1.000000
vn 0.000000 -0.000001 -1.000000
vn 0.000000 -0.000001 -1.000000
vn 1.000000 0.000000 0.000000
vn 1.000000 0.000000 0.000000
vn 1.000000 0.000000 0.000000
vn 1.000000 0.000000 0.000000
vn -0.002277 0.999997 0.000145
vn -0.002214 0.999998 0.000189
vn -0.002213 0.999998 -0.000189
vn -0.002275 0.999997 -0.000145
vn -0.000273 1.000000 0.000000
vn -0.000198 1.000000 0.000000
vn -0.000199 1.000000 0.000000
vn -0.000273 1.000000 0.000000
vn -0.000198 1.000000 0.000000
vn 0.000116 1.000000 0.000000
vn 0.000118 1.000000 0.000000
vn -0.000199 1.000000 0.000000
vn 0.000116 1.000000 0.000000
vn 0.000427 1.000000 0.000000
vn 0.000427 1.000000 0.000000
vn 0.000118 1.000000 0.000000
vn 0.002021 0.999998 -0.000138
vn 0.001968 0.999998 -0.000180
vn 0.001969 0.999998 0.000180
vn 0.002022 0.999998 0.000138
vn -1.000000 0.000000 0.000000
vn -1.000000 0.000000 0.000000
vn -1.000000 0.000000 0.000000
vn -1.000000 0.000000 0.000000
vn -1.000000 -0.000274 0.000000
vn -1.000000 -0.000274 0.000000
vn -1.000000 -0.000274 0.000000
vn -1.000000 -0.000274 0.000000
vn 1.000000 -0.000427 0.000000
vn 1.000000 -0.000427 0.000000
vn 1.000000 -0.000427 0.000000
vn 1.000000 -0.000427 0.000000
vn -0.089665 -0.000021 -0.995972
vn -0.042049 -0.000010 -0.999116
vn -0.042005 -0.000010 -0.999117
vn -0.089665 -0.000021 -0.995972
vn -0.042049 -0.000010 -0.999116
vn 0.041942 -0.000012 -0.999120
vn 0.041900 -0.000012 -0.999122
vn -0.042005 -0.000010 -0.999117
vn 0.041942 -0.000012 -0.999120
vn 0.089182 -0.000025 -0.996015
vn 0.089182 -0.000025 -0.996015
vn 0.041900 -0.000012 -0.999122
vn 0.000000 1.000000 0.000000
vn 0.000000 1.000000 0.000000
vn 0.000000 1.000000 0.000000
vn 0.000000 1.000000 0.000000
vn 0.002720 0.999996 -0.000001
vn 0.002720 0.999996 -0.000001
vn 0.002720 0.999996 -0.000001
vn -0.002706 0.999996 -0.000001
vn -0.002706 0.999996 -0.000001
vn -0.002706 0.999996 -0.000001
vn -0.052739 -0.000012 0.998608
vn -0.112322 -0.000026 0.993672
vn -0.112322 -0.000026 0.993672
vn -0.052690 -0.000012 0.998611
vn 0.052624 -0.000015 0.998614
vn -0.052739 -0.000012 0.998608
vn -0.052690 -0.000012 0.998611
vn 0.052614 -0.000015 0.998615
vn 0.111712 -0.000032 0.993741
vn 0.052624 -0.000015 0.998614
vn 0.052614 -0.000015 0.998615
vn 0.111712 -0.000032 0.993741
vn 0.001198 0.999999 0.000948
vn 0.001198 0.999999 0.000948
vn 0.001198 0.999999 0.000948
vn 0.001198 0.999999 0.000948
vn -0.000214 0.999998 0.001897
vn -0.000214 0.999998 0.001897
vn -0.000214 0.999998 0.001897
vn -0.002716 0.999996 0.000000
vn -0.002716 0.999996 0.000000
vn -0.002716 0.999996 0.000000
vn 0.000001 0.000000 1.000000
vn 0.000000 0.000000 1.000000
vn 0.000000 0.000000 1.000000
vn 0.000001 0.000000 1.000000
vn -0.000001 0.000000 1.000000
vn 0.000000 0.000000 1.000000
vn 0.000000 0.000000 1.000000
vn -0.000001 0.000000 1.000000
vn 0.000000 0.000000 1.000000
vn -0.000001 0.000000 1.000000
vn -0.000001 0.000000 1.000000
vn 0.000000 0.000000 1.000000
vn 1.000000 0.000000 0.000000
vn 1.000000 0.000000 0.000000
vn 1.000000 0.000000 0.000000
vn 1.000000 0.000000 0.000000
vn 1.000000 0.000000 0.000000
vn 1.000000 0.000000 0.000000
vn 1.000000 0.000000 0.000000
vn 1.000000 0.000000 0.000000
vn 1.000000 0.000000 0.000000
vn 1.000000 0.000000 0.000000
vn 1.000000 0.000000 0.000000
vn 1.000000 0.000000 0.000000
vn 0.000000 0.000000 -1.000000
vn 0.000001 0.000000 -1.000000
vn 0.000001 0.000000 -1.000000
vn 0.000000 0.000000 -1.000000
vn 0.000001 0.000000 -1.000000
vn 0.000000 0.000000 -1.000000
vn 0.000000 0.000000 -1.000000
vn 0.000001 0.000000 -1.000000
vn -0.000001 0.000000 -1.000000
vn 0.000000 0.000000 -1.000000
vn 0.000000 0.000000 -1.000000
vn -0.000001 0.000000 -1.000000
vn -1.000000 0.000000 0.000000
vn -1.000000 0.000000 0.000000
vn -1.000000 0.000000 0.000000
vn -1.000000 0.000000 0.000000
vn -1.000000 0.000000 0.000000
vn -1.000000 0.000000 0.000000
vn -1.000000 0.000000 0.000000
vn -1.000000 0.000000 0.000000
vn -1.000000 0.000000 0.000000
vn -1.000000 0.000000 0.000000
vn -1.000000 0.000000 0.000000
vn -1.000000 0.000000 0.000000
vn 0.000000 0.000001 1.000000
vn 0.000000 0.000001 1.000000
vn 0.000000 0.000000 1.000000
vn 0.000001 0.000000 1.000000
vn -0.000001 0.000000 1.000000
vn 0.000000 0.000000 1.000000
vn 0.000000 0.000001 1.000000
vn 0.000000 0.000001 1.000000
vn 0.000000 0.000000 1.000000
vn -0.000001 0.000000 1.000000
vn 0.000000 0.000001 1.000000
vn 0.000000 0.000001 1.000000
vn 1.000000 0.000000 0.000000
vn 1.000000 0.000000 0.000000
vn 1.000000 0.000000 0.000000
vn 1.000000 0.000000 0.000000
vn 1.000000 0.000000 0.000000
vn 1.000000 0.000000 0.000000
vn 1.000000 0.000000 0.000000
vn 1.000000 0.000000 0.000000
vn 1.000000 0.000000 0.000000
vn 1.000000 0.000000 0.000000
vn 1.000000 0.000000 0.000000
vn 1.000000 0.000000 0.000000
vn 0.000000 0.000001 -1.000000
vn 0.000001 0.000000 -1.000000
vn 0.000000 0.000000 -1.000000
vn 0.000000 0.000001 -1.000000
vn 0.000000 0.000001 -1.000000
vn 0.000000 0.000000 -1.000000
vn 0.000001 0.000000 -1.000000
vn 0.000000 0.000001 -1.000000
vn -0.000001 0.000000 -1.000000
vn 0.000000 0.000000 -1.000000
vn 0.000000 0.000001 -1.000000
vn 0.000000 0.000001 -1.000000
vn -1.000000 0.000001 0.000000
vn -1.000000 0.000001 0.000000
vn -1.000000 0.000000 0.000000
vn -1.000000 0.000000 0.000000
vn -1.000000 0.000000 0.000000
vn -1.000000 0.000000 0.000000
vn -1.000000 0.000001 0.000000
vn -1.000000 0.000001 0.000000
vn -1.000000 0.000000 0.000000
vn -1.000000 0.000000 0.000000
vn -1.000000 0.000001 0.000000
vn -1.000000 0.000001 0.000000
s off
g pCube1
usemtl initialShadingGroup
f 22/1/1 42/2/2 43/3/3 24/4/4
f 48/5/5 49/6/6 19/7/7 27/8/8
f 10/11/9 46/12/10 47/13/11 6/14/12
f 50/73/13 51/16/14 9/17/15 5/18/16
f 44/75/17 45/20/18 14/21/19 4/22/20
f 13/25/21 52/26/22 41/27/23 3/28/24
f 5/18/25 19/7/26 49/6/27 50/15/28
f 9/17/29 20/82/30 19/7/31 5/18/32
f 3/28/33 22/1/34 21/34/35 13/25/36
f 41/76/37 42/2/38 22/1/39 3/28/40
f 24/4/41 43/3/42 44/19/43 4/22/44
f 25/88/45 24/4/46 4/22/47 14/21/48
f 27/8/49 26/38/50 10/11/51 6/14/52
f 47/74/53 48/5/54 27/8/55 6/14/56
f 14/21/57 45/20/58 46/12/59 10/11/60
f 10/11/61 26/38/62 25/88/63 14/21/64
f 29/80/65 30/42/66 31/43/67 32/44/68
f 30/42/69 33/45/70 34/46/71 31/43/72
f 33/45/73 35/47/74 36/78/75 34/46/76
f 13/25/77 21/34/78 20/82/79 9/17/80
f 9/17/81 51/16/82 52/26/83 13/25/84
f 25/88/85 26/38/86 29/41/87 32/79/88
f 20/82/89 21/34/90 36/48/91 35/77/92
f 32/44/93 31/43/94 37/87/95 25/37/96
f 31/43/97 34/46/98 38/86/99 37/87/100
f 34/46/101 36/78/102 21/85/103 38/86/104
f 22/1/105 24/4/106 37/49/107 38/50/108
f 25/88/109 37/49/110 24/4/111
f 38/50/112 21/34/113 22/1/114
f 30/42/115 29/80/116 26/84/117 39/83/118
f 33/45/119 30/42/120 39/83/121 40/81/122
f 35/47/123 33/45/124 40/81/125 20/33/126
f 27/8/127 19/7/128 40/52/129 39/51/130
f 39/51/131 26/38/132 27/8/133
f 20/82/134 40/52/135 19/7/136
f 53/71/137 54/54/138 42/2/139 41/76/140
f 43/3/141 42/2/142 54/54/143 55/55/144
f 44/19/145 43/3/146 55/55/147 56/56/148
f 56/70/149 57/57/150 45/20/151 44/75/152
f 46/12/153 45/20/154 57/57/155 58/58/156
f 47/13/157 46/12/158 58/58/159 59/59/160
f 59/68/161 60/60/162 48/5/163 47/74/164
f 60/60/165 61/61/166 49/6/167 48/5/168
f 50/15/169 49/6/170 61/61/171 62/62/172
f 62/66/173 63/63/174 51/16/175 50/73/176
f 52/26/177 51/16/178 63/63/179 64/64/180
f 41/27/181 52/26/182 64/64/183 53/53/184
f 1/72/185 17/23/186 54/54/187 53/71/188
f 55/55/189 54/54/190 17/23/191 23/24/192
f 56/56/193 55/55/194 23/24/195 2/36/196
f 2/69/197 15/35/198 57/57/199 56/70/200
f 58/58/201 57/57/202 15/35/203 11/40/204
f 59/59/205 58/58/206 11/40/207 8/39/208
f 28/10/209 60/60/210 59/68/211 8/67/212
f 18/9/213 61/61/214 60/60/215 28/10/216
f 62/62/217 61/61/218 18/9/219 7/31/220
f 7/65/221 12/32/222 63/63/223 62/66/224
f 64/64/225 63/63/226 12/32/227 16/29/228
f 53/53/229 64/64/230 16/29/231 1/30/232
